<?xml version="1.0" encoding="UTF-8"?>
<!DOCTYPE svg PUBLIC "-//W3C//DTD SVG 1.1//EN" "http://www.w3.org/Graphics/SVG/1.1/DTD/svg11.dtd">
<!-- Creator: CorelDRAW 2021 (64-Bit) -->
<svg xmlns="http://www.w3.org/2000/svg" xml:space="preserve" width="175.15mm" height="121.041mm" version="1.1" style="shape-rendering:geometricPrecision; text-rendering:geometricPrecision; image-rendering:optimizeQuality; fill-rule:evenodd; clip-rule:evenodd"
viewBox="0 0 17563.37 12137.55"
 xmlns:xlink="http://www.w3.org/1999/xlink"
 xmlns:xodm="http://www.corel.com/coreldraw/odm/2003">
 <defs>
  <style type="text/css">
   <![CDATA[
    .str0 {stroke:#FEFEFE;stroke-width:250.69;stroke-miterlimit:22.9256}
    .str1 {stroke:#FEFEFE;stroke-width:7.64;stroke-miterlimit:22.9256}
    .fil6 {fill:none}
    .fil1 {fill:#FEFEFE}
    .fil2 {fill:#2B2A29}
    .fil3 {fill:#E31E24}
    .fil0 {fill:#009846}
    .fil5 {fill:#FEFEFE;fill-rule:nonzero}
    .fil4 {fill:#2B2A29;fill-rule:nonzero}
    .fil7 {fill:url(#id0)}
   ]]>
  </style>
  <linearGradient id="id0" gradientUnits="userSpaceOnUse" x1="8751.88" y1="3696.85" x2="8751.88" y2="6598.97">
   <stop offset="0" style="stop-opacity:1; stop-color:#FEFEFE"/>
   <stop offset="0.160784" style="stop-opacity:1; stop-color:#FEFEFE"/>
   <stop offset="1" style="stop-opacity:1; stop-color:#E0F2CA"/>
  </linearGradient>
 </defs>
 <g id="Layer_x0020_1">
  <metadata id="CorelCorpID_0Corel-Layer"/>
  <path class="fil0" d="M13558.33 7133.41c12.3,-134.22 18.6,-118.27 18.6,-407.52 0,-289.26 -65.03,-1240.19 -185.7,-1643.08l-0.13 -0.4c-43.41,-144.89 -94.06,-286.74 -151.54,-425.15l-2.39 -5.74c-57.19,-137.17 -121.05,-271 -191.26,-401.02l-2.84 -5.27c-13.56,-25.03 -27.36,-49.93 -41.36,-74.67l-2.93 -5.14c-58.25,-102.46 -120.42,-202.52 -186.39,-299.88l-1.91 -2.84c-15.28,-22.54 -30.81,-44.88 -46.51,-67.11l-8.01 -11.33c-15.52,-21.89 -31.22,-43.61 -47.12,-65.19l-5.08 -6.84c-67.61,-91.32 -138.63,-180.07 -212.89,-266.05l-11.89 -13.78c-16.21,-18.64 -32.63,-37.13 -49.15,-55.49l-14.21 -15.7c-16.72,-18.43 -33.56,-36.78 -50.6,-54.95l-9.51 -10c-55.8,-59.11 -113.22,-116.75 -172.15,-172.87 -4.42,-4.21 -8.78,-8.47 -13.23,-12.65 -16.73,-15.8 -33.65,-31.44 -50.63,-46.98 -7.28,-6.68 -14.59,-13.36 -21.91,-20 -16.41,-14.86 -32.92,-29.58 -49.56,-44.19 -7.56,-6.65 -15.18,-13.21 -22.78,-19.81 -16.88,-14.66 -33.82,-29.26 -50.94,-43.68 -6.26,-5.26 -12.59,-10.42 -18.88,-15.64 -36.24,-30.17 -72.94,-59.84 -110.14,-88.92 -4.92,-3.84 -9.76,-7.77 -14.68,-11.59 -16.4,-12.69 -32.96,-25.18 -49.54,-37.66 -9.84,-7.42 -19.67,-14.88 -29.58,-22.22 -16.15,-12 -32.47,-23.84 -48.8,-35.62 -10.52,-7.58 -21.07,-15.11 -31.64,-22.6 -16.15,-11.48 -32.39,-22.87 -48.72,-34.13 -11.11,-7.66 -22.32,-15.18 -33.5,-22.76 -16.09,-10.92 -32.2,-21.84 -48.45,-32.54 -12.83,-8.45 -25.81,-16.7 -38.76,-25 -26.64,-17.09 -53.43,-34.01 -80.43,-50.62 -14.19,-8.72 -28.34,-17.5 -42.64,-26.09 -14.87,-8.92 -29.89,-17.66 -44.87,-26.43 -14.28,-8.35 -28.6,-16.69 -42.98,-24.91 -14.64,-8.36 -29.34,-16.62 -44.08,-24.8 -15.16,-8.42 -30.39,-16.75 -45.65,-25.02 -14.38,-7.81 -28.79,-15.61 -43.28,-23.25 -16.6,-8.75 -33.33,-17.28 -50.03,-25.86 -13.39,-6.88 -26.69,-13.84 -40.14,-20.57 -28.33,-14.16 -56.77,-28.08 -85.45,-41.61 -13.1,-6.19 -26.3,-12.17 -39.45,-18.26 -17.85,-8.26 -35.73,-16.54 -53.71,-24.58 -13.93,-6.25 -27.95,-12.32 -41.96,-18.43 -17.66,-7.68 -35.35,-15.28 -53.12,-22.77 -14.03,-5.92 -28.09,-11.76 -42.19,-17.55 -18.35,-7.5 -36.8,-14.82 -55.25,-22.11 -13.42,-5.3 -26.8,-10.65 -40.29,-15.81 -24.11,-9.26 -48.36,-18.22 -72.66,-27.08 -9.98,-3.63 -19.9,-7.33 -29.92,-10.89 -29.24,-10.42 -58.59,-20.62 -88.13,-30.43 -12.06,-4.01 -24.21,-7.86 -36.31,-11.79 -20.82,-6.76 -41.67,-13.45 -62.61,-19.92 -13.4,-4.15 -26.85,-8.18 -40.32,-12.21 -20.54,-6.15 -41.14,-12.14 -61.8,-18.03 -13.07,-3.73 -26.16,-7.43 -39.31,-11.04 -22.62,-6.21 -45.36,-12.17 -68.12,-18.08 -10.98,-2.85 -21.93,-5.79 -32.94,-8.54 -33.37,-8.36 -66.86,-16.43 -100.55,-24.05 -7.23,-1.63 -14.52,-3.1 -21.77,-4.71 -26.9,-5.98 -53.88,-11.79 -80.96,-17.29 -12.38,-2.5 -24.82,-4.88 -37.23,-7.3 -22.72,-4.42 -45.49,-8.71 -68.33,-12.83 -12.8,-2.3 -25.6,-4.52 -38.43,-6.71 -23.06,-3.94 -46.2,-7.65 -69.37,-11.27 -12.35,-1.93 -24.72,-3.89 -37.12,-5.72 -27.62,-4.07 -55.35,-7.8 -83.13,-11.4 -7.46,-0.97 -14.87,-2.04 -22.33,-2.98 -35.26,-4.35 -70.63,-8.36 -106.14,-11.88 -9.8,-0.98 -19.62,-1.79 -29.43,-2.73 -25.9,-2.44 -51.83,-4.75 -77.84,-6.78 -13.04,-1 -26.11,-1.89 -39.17,-2.79 -23.51,-1.63 -47.07,-3.09 -70.66,-4.38 -13.2,-0.73 -26.38,-1.42 -39.6,-2.03 -24.93,-1.16 -49.94,-2.02 -74.97,-2.8 -11.51,-0.35 -23.02,-0.78 -34.58,-1.05 -36.35,-0.82 -72.78,-1.36 -109.34,-1.36 -36.56,0 -73.01,0.46 -109.35,1.36 -11.55,0.29 -23.05,0.68 -34.58,1.05 -25.03,0.78 -50.03,1.65 -74.97,2.8 -13.22,0.59 -26.41,1.29 -39.6,2.03 -23.61,1.29 -47.15,2.78 -70.65,4.38 -13.07,0.88 -26.14,1.77 -39.18,2.79 -26.01,2.04 -51.94,4.36 -77.84,6.78 -9.8,0.92 -19.64,1.72 -29.43,2.73 -35.49,3.58 -70.9,7.48 -106.14,11.88 -7.46,0.94 -14.87,2.02 -22.33,2.98 -27.78,3.59 -55.51,7.32 -83.13,11.4 -12.4,1.84 -24.76,3.8 -37.12,5.72 -23.18,3.6 -46.31,7.34 -69.37,11.27 -12.83,2.18 -25.63,4.42 -38.43,6.71 -22.84,4.1 -45.61,8.42 -68.33,12.83 -12.42,2.42 -24.85,4.78 -37.23,7.3 -27.08,5.51 -54.05,11.33 -80.96,17.29 -7.25,1.59 -14.54,3.07 -21.77,4.71 -33.66,7.65 -67.2,15.63 -100.55,24.05 -11.01,2.78 -21.96,5.71 -32.94,8.54 -22.76,5.89 -45.49,11.87 -68.12,18.08 -13.15,3.61 -26.23,7.31 -39.31,11.04 -20.67,5.88 -41.25,11.9 -61.8,18.03 -13.46,4.03 -26.92,8.06 -40.32,12.21 -20.95,6.48 -41.79,13.19 -62.61,19.92 -12.1,3.92 -24.26,7.75 -36.31,11.79 -29.5,9.87 -58.91,19.98 -88.13,30.43 -10.01,3.57 -19.95,7.26 -29.92,10.89 -24.3,8.86 -48.55,17.82 -72.66,27.08 -13.49,5.17 -26.86,10.52 -40.29,15.81 -18.46,7.28 -36.9,14.62 -55.25,22.11 -14.1,5.77 -28.16,11.64 -42.19,17.55 -17.77,7.48 -35.46,15.11 -53.12,22.77 -14.01,6.09 -28.02,12.18 -41.96,18.43 -17.98,8.04 -35.83,16.33 -53.71,24.58 -13.16,6.08 -26.36,12.04 -39.45,18.26 -28.65,13.6 -57.17,27.41 -85.45,41.61 -13.44,6.75 -26.75,13.71 -40.14,20.57 -16.71,8.55 -33.43,17.12 -50.03,25.86 -14.49,7.64 -28.89,15.45 -43.28,23.25 -15.26,8.26 -30.48,16.61 -45.65,25.02 -14.75,8.17 -29.44,16.45 -44.08,24.8 -14.39,8.21 -28.69,16.58 -42.98,24.91 -15,8.75 -29.99,17.5 -44.87,26.43 -14.3,8.59 -28.46,17.36 -42.64,26.09 -26.96,16.65 -53.82,33.48 -80.43,50.62 -12.93,8.32 -25.93,16.56 -38.76,25 -16.25,10.7 -32.34,21.64 -48.45,32.54 -11.19,7.57 -22.39,15.11 -33.5,22.76 -16.33,11.25 -32.56,22.66 -48.72,34.13 -10.58,7.49 -21.12,15.03 -31.64,22.6 -16.36,11.76 -32.64,23.63 -48.8,35.62 -9.91,7.34 -19.72,14.82 -29.58,22.22 -16.58,12.46 -33.14,24.96 -49.54,37.66 -4.92,3.82 -9.76,7.75 -14.68,11.59 -37.18,29.1 -73.91,58.73 -110.14,88.92 -6.28,5.22 -12.62,10.38 -18.88,15.64 -17.11,14.42 -34.04,29.03 -50.94,43.68 -7.6,6.6 -15.21,13.18 -22.78,19.81 -16.65,14.6 -33.14,29.34 -49.56,44.19 -7.33,6.64 -14.63,13.33 -21.91,20 -17,15.54 -33.89,31.18 -50.63,46.98 -4.43,4.18 -8.8,8.44 -13.23,12.65 -58.92,56.12 -116.35,113.74 -172.15,172.87l-9.51 10c-17.04,18.17 -33.87,36.52 -50.6,54.95l-14.21 15.7c-16.55,18.35 -32.92,36.86 -49.15,55.49l-11.89 13.78c-74.25,86 -145.28,174.71 -212.89,266.05l-5.08 6.84c-15.89,21.59 -31.59,43.3 -47.12,65.19l-8.01 11.33c-15.69,22.22 -31.23,44.57 -46.51,67.11l-1.91 2.84c-65.98,97.38 -128.15,197.39 -186.39,299.88l-2.93 5.14c-14.02,24.73 -27.81,49.63 -41.36,74.67l-2.84 5.27c-70.19,130.05 -134.08,263.85 -191.26,401.02l-2.39 5.74c-57.48,138.42 -108.13,280.26 -151.54,425.15l-0.13 0.4c-120.67,402.89 -185.7,1353.82 -185.7,1643.08 0,289.26 6.3,273.3 18.6,407.52l9150.57 0z"/>
  <path class="fil1" d="M8829.31 0c3007.67,0 5519.36,2079.94 6120.31,4852.24l2613.76 79.59 -1169.24 1008.33 864.66 799.96 8.3 3399.44 -1614.23 25.19 0 1972.79 -13741.16 0 0 -1972.79 -1702.01 0 -127.3 -3419.55 944.27 -858.83 -1026.68 -972.17 2708.99 -61.97c600.95,-2772.31 3112.63,-4852.24 6120.32,-4852.24zm4575.28 6902.84c12.3,-134.22 18.6,-118.27 18.6,-407.52 0,-289.26 -65.03,-1240.19 -185.7,-1643.08l-0.13 -0.4c-43.41,-144.89 -94.06,-286.74 -151.54,-425.15l-2.39 -5.74c-57.19,-137.17 -121.05,-271 -191.26,-401.02l-2.84 -5.27c-13.56,-25.03 -27.36,-49.93 -41.36,-74.67l-2.93 -5.14c-58.25,-102.46 -120.42,-202.52 -186.39,-299.88l-1.91 -2.84c-15.28,-22.54 -30.81,-44.88 -46.51,-67.11l-8.01 -11.33c-15.52,-21.89 -31.22,-43.61 -47.12,-65.19l-5.08 -6.84c-67.61,-91.32 -138.63,-180.07 -212.89,-266.05l-11.89 -13.78c-16.21,-18.64 -32.63,-37.13 -49.15,-55.49l-14.21 -15.7c-16.72,-18.43 -33.56,-36.78 -50.6,-54.95l-9.51 -10c-55.8,-59.11 -113.22,-116.75 -172.15,-172.87 -4.42,-4.21 -8.78,-8.47 -13.23,-12.65 -16.73,-15.8 -33.65,-31.44 -50.63,-46.98 -7.28,-6.68 -14.59,-13.36 -21.91,-20 -16.41,-14.86 -32.92,-29.58 -49.56,-44.19 -7.56,-6.65 -15.18,-13.21 -22.78,-19.81 -16.88,-14.66 -33.82,-29.26 -50.94,-43.68 -6.26,-5.26 -12.59,-10.42 -18.88,-15.64 -36.24,-30.17 -72.94,-59.84 -110.14,-88.92 -4.92,-3.84 -9.76,-7.77 -14.68,-11.59 -16.4,-12.69 -32.96,-25.18 -49.54,-37.66 -9.84,-7.42 -19.67,-14.88 -29.58,-22.22 -16.15,-12 -32.47,-23.84 -48.8,-35.62 -10.52,-7.58 -21.07,-15.11 -31.64,-22.6 -16.15,-11.48 -32.39,-22.87 -48.72,-34.13 -11.11,-7.66 -22.32,-15.18 -33.5,-22.76 -16.09,-10.92 -32.2,-21.84 -48.45,-32.54 -12.83,-8.45 -25.81,-16.7 -38.76,-25 -26.64,-17.09 -53.43,-34.01 -80.43,-50.62 -14.19,-8.72 -28.34,-17.5 -42.64,-26.09 -14.87,-8.92 -29.89,-17.66 -44.87,-26.43 -14.28,-8.35 -28.6,-16.69 -42.98,-24.91 -14.64,-8.36 -29.34,-16.62 -44.08,-24.8 -15.16,-8.42 -30.39,-16.75 -45.65,-25.02 -14.38,-7.81 -28.79,-15.61 -43.28,-23.25 -16.6,-8.75 -33.33,-17.28 -50.03,-25.86 -13.39,-6.88 -26.69,-13.84 -40.14,-20.57 -28.33,-14.16 -56.77,-28.08 -85.45,-41.61 -13.1,-6.19 -26.3,-12.17 -39.45,-18.26 -17.85,-8.26 -35.73,-16.54 -53.71,-24.58 -13.93,-6.25 -27.95,-12.32 -41.96,-18.43 -17.66,-7.68 -35.35,-15.28 -53.12,-22.77 -14.03,-5.92 -28.09,-11.76 -42.19,-17.55 -18.35,-7.5 -36.8,-14.82 -55.25,-22.11 -13.42,-5.3 -26.8,-10.65 -40.29,-15.81 -24.11,-9.26 -48.36,-18.22 -72.66,-27.08 -9.98,-3.63 -19.9,-7.33 -29.92,-10.89 -29.24,-10.42 -58.59,-20.62 -88.13,-30.43 -12.06,-4.01 -24.21,-7.86 -36.31,-11.79 -20.82,-6.76 -41.67,-13.45 -62.61,-19.92 -13.4,-4.15 -26.85,-8.18 -40.32,-12.21 -20.54,-6.15 -41.14,-12.14 -61.8,-18.03 -13.07,-3.73 -26.16,-7.43 -39.31,-11.04 -22.62,-6.21 -45.36,-12.17 -68.12,-18.08 -10.98,-2.85 -21.93,-5.79 -32.94,-8.54 -33.37,-8.36 -66.86,-16.43 -100.55,-24.05 -7.23,-1.63 -14.52,-3.1 -21.77,-4.71 -26.9,-5.98 -53.88,-11.79 -80.96,-17.29 -12.38,-2.5 -24.82,-4.88 -37.23,-7.3 -22.72,-4.42 -45.49,-8.71 -68.33,-12.83 -12.8,-2.3 -25.6,-4.52 -38.43,-6.71 -23.06,-3.94 -46.2,-7.65 -69.37,-11.27 -12.35,-1.93 -24.72,-3.89 -37.12,-5.72 -27.62,-4.07 -55.35,-7.8 -83.13,-11.4 -7.46,-0.97 -14.87,-2.04 -22.33,-2.98 -35.26,-4.35 -70.63,-8.36 -106.14,-11.88 -9.8,-0.98 -19.62,-1.79 -29.43,-2.73 -25.9,-2.44 -51.83,-4.75 -77.84,-6.78 -13.04,-1 -26.11,-1.89 -39.17,-2.79 -23.51,-1.63 -47.07,-3.09 -70.66,-4.38 -13.2,-0.73 -26.38,-1.42 -39.6,-2.03 -24.93,-1.16 -49.94,-2.02 -74.97,-2.8 -11.51,-0.35 -23.02,-0.78 -34.58,-1.05 -36.35,-0.82 -72.78,-1.36 -109.34,-1.36 -36.56,0 -73.01,0.46 -109.35,1.36 -11.55,0.29 -23.05,0.68 -34.58,1.05 -25.03,0.78 -50.03,1.65 -74.97,2.8 -13.22,0.59 -26.41,1.29 -39.6,2.03 -23.61,1.29 -47.15,2.78 -70.65,4.38 -13.07,0.88 -26.14,1.77 -39.18,2.79 -26.01,2.04 -51.94,4.36 -77.84,6.78 -9.8,0.92 -19.64,1.72 -29.43,2.73 -35.49,3.58 -70.9,7.48 -106.14,11.88 -7.46,0.94 -14.87,2.02 -22.33,2.98 -27.78,3.59 -55.51,7.32 -83.13,11.4 -12.4,1.84 -24.76,3.8 -37.12,5.72 -23.18,3.6 -46.31,7.34 -69.37,11.27 -12.83,2.18 -25.63,4.42 -38.43,6.71 -22.84,4.1 -45.61,8.42 -68.33,12.83 -12.42,2.42 -24.85,4.78 -37.23,7.3 -27.08,5.51 -54.05,11.33 -80.96,17.29 -7.25,1.59 -14.54,3.07 -21.77,4.71 -33.66,7.65 -67.2,15.63 -100.55,24.05 -11.01,2.78 -21.96,5.71 -32.94,8.54 -22.76,5.89 -45.49,11.87 -68.12,18.08 -13.15,3.61 -26.23,7.31 -39.31,11.04 -20.67,5.88 -41.25,11.9 -61.8,18.03 -13.46,4.03 -26.92,8.06 -40.32,12.21 -20.95,6.48 -41.79,13.19 -62.61,19.92 -12.1,3.92 -24.26,7.75 -36.31,11.79 -29.5,9.87 -58.91,19.98 -88.13,30.43 -10.01,3.57 -19.95,7.26 -29.92,10.89 -24.3,8.86 -48.55,17.82 -72.66,27.08 -13.49,5.17 -26.86,10.52 -40.29,15.81 -18.46,7.28 -36.9,14.62 -55.25,22.11 -14.1,5.77 -28.16,11.64 -42.19,17.55 -17.77,7.48 -35.46,15.11 -53.12,22.77 -14.01,6.09 -28.02,12.18 -41.96,18.43 -17.98,8.04 -35.83,16.33 -53.71,24.58 -13.16,6.08 -26.36,12.04 -39.45,18.26 -28.65,13.6 -57.17,27.41 -85.45,41.61 -13.44,6.75 -26.75,13.71 -40.14,20.57 -16.71,8.55 -33.43,17.12 -50.03,25.86 -14.49,7.64 -28.89,15.45 -43.28,23.25 -15.26,8.26 -30.48,16.61 -45.65,25.02 -14.75,8.17 -29.44,16.45 -44.08,24.8 -14.39,8.21 -28.69,16.58 -42.98,24.91 -15,8.75 -29.99,17.5 -44.87,26.43 -14.3,8.59 -28.46,17.36 -42.64,26.09 -26.96,16.65 -53.82,33.48 -80.43,50.62 -12.93,8.32 -25.93,16.56 -38.76,25 -16.25,10.7 -32.34,21.64 -48.45,32.54 -11.19,7.57 -22.39,15.11 -33.5,22.76 -16.33,11.25 -32.56,22.66 -48.72,34.13 -10.58,7.49 -21.12,15.03 -31.64,22.6 -16.36,11.76 -32.64,23.63 -48.8,35.62 -9.91,7.34 -19.72,14.82 -29.58,22.22 -16.58,12.46 -33.14,24.96 -49.54,37.66 -4.92,3.82 -9.76,7.75 -14.68,11.59 -37.18,29.1 -73.91,58.73 -110.14,88.92 -6.28,5.22 -12.62,10.38 -18.88,15.64 -17.11,14.42 -34.04,29.03 -50.94,43.68 -7.6,6.6 -15.21,13.18 -22.78,19.81 -16.65,14.6 -33.14,29.34 -49.56,44.19 -7.33,6.64 -14.63,13.33 -21.91,20 -17,15.54 -33.89,31.18 -50.63,46.98 -4.43,4.18 -8.8,8.44 -13.23,12.65 -58.92,56.12 -116.35,113.74 -172.15,172.87l-9.51 10c-17.04,18.17 -33.87,36.52 -50.6,54.95l-14.21 15.7c-16.55,18.35 -32.92,36.86 -49.15,55.49l-11.89 13.78c-74.25,86 -145.28,174.71 -212.89,266.05l-5.08 6.84c-15.89,21.59 -31.59,43.3 -47.12,65.19l-8.01 11.33c-15.69,22.22 -31.23,44.57 -46.51,67.11l-1.91 2.84c-65.98,97.38 -128.15,197.39 -186.39,299.88l-2.93 5.14c-14.02,24.73 -27.81,49.63 -41.36,74.67l-2.84 5.27c-70.19,130.05 -134.08,263.85 -191.26,401.02l-2.39 5.74c-57.48,138.42 -108.13,280.26 -151.54,425.15l-0.13 0.4c-120.67,402.89 -185.7,1353.82 -185.7,1643.08 0,289.26 6.3,273.3 18.6,407.52l9150.57 0z"/>
  <path class="fil2" d="M8826.2 370.85c2864.83,0 5257.22,2093.37 5829.63,4787.6l2256.08 0 -894.59 787.18 956.02 924.83 -95.19 2937.71 -16347.35 39.04 -274.43 -2939.67 1112.12 -1050.9 -858.03 -751.66 2453.58 43.8c572.41,-2694.23 2997.34,-4777.92 5862.17,-4777.92zm4357.98 6346.18c11.71,-130.45 17.72,-262.55 17.72,-396.05 0,-428.74 -61.94,-842.97 -176.89,-1234.52l-0.12 -0.38c-41.35,-140.82 -89.6,-278.67 -144.34,-413.19l-2.28 -5.57c-54.47,-133.32 -115.31,-263.38 -182.17,-389.73l-2.71 -5.13c-12.92,-24.32 -26.05,-48.51 -39.4,-72.56l-2.79 -4.99c-55.48,-99.58 -114.71,-196.82 -177.54,-291.43l-1.81 -2.77c-14.56,-21.9 -29.35,-43.61 -44.3,-65.22l-7.63 -11.02c-14.78,-21.26 -29.73,-42.38 -44.88,-63.34l-4.84 -6.65c-64.39,-88.75 -132.04,-174.99 -202.77,-258.55l-11.33 -13.4c-15.44,-18.12 -31.08,-36.08 -46.81,-53.94l-13.54 -15.25c-15.92,-17.92 -31.97,-35.75 -48.19,-53.4l-9.05 -9.73c-53.16,-57.45 -107.85,-113.46 -163.98,-167.99 -4.21,-4.09 -8.36,-8.23 -12.59,-12.3 -15.93,-15.36 -32.06,-30.54 -48.22,-45.66 -6.94,-6.49 -13.9,-12.99 -20.88,-19.43 -15.62,-14.44 -31.36,-28.75 -47.2,-42.95 -7.2,-6.46 -14.46,-12.84 -21.7,-19.25 -16.07,-14.25 -32.22,-28.44 -48.52,-42.45 -5.96,-5.11 -11.99,-10.13 -17.98,-15.21 -34.53,-29.31 -69.48,-58.15 -104.92,-86.42 -4.68,-3.73 -9.29,-7.55 -13.98,-11.26 -15.61,-12.33 -31.4,-24.47 -47.18,-36.6 -9.38,-7.22 -18.74,-14.46 -28.18,-21.6 -15.39,-11.66 -30.93,-23.16 -46.49,-34.62 -10.02,-7.37 -20.07,-14.68 -30.13,-21.97 -15.39,-11.15 -30.85,-22.22 -46.41,-33.16 -10.59,-7.45 -21.27,-14.76 -31.92,-22.13 -15.33,-10.61 -30.66,-21.22 -46.15,-31.62 -12.22,-8.21 -24.59,-16.23 -36.92,-24.3 -25.38,-16.62 -50.89,-33.06 -76.61,-49.2 -13.52,-8.48 -26.99,-17.01 -40.61,-25.35 -14.16,-8.67 -28.47,-17.17 -42.74,-25.69 -13.61,-8.12 -27.25,-16.21 -40.94,-24.21 -13.94,-8.13 -27.95,-16.14 -41.99,-24.11 -14.44,-8.19 -28.95,-16.27 -43.48,-24.32 -13.7,-7.59 -27.42,-15.16 -41.22,-22.59 -15.8,-8.51 -31.75,-16.8 -47.65,-25.14 -12.75,-6.68 -25.42,-13.45 -38.24,-19.99 -26.97,-13.76 -54.07,-27.29 -81.38,-40.44 -12.47,-6.01 -25.05,-11.83 -37.57,-17.75 -17.01,-8.03 -34.03,-16.06 -51.16,-23.89 -13.27,-6.07 -26.61,-11.97 -39.96,-17.91 -16.82,-7.47 -33.67,-14.85 -50.59,-22.13 -13.37,-5.75 -26.75,-11.43 -40.19,-17.05 -17.48,-7.3 -35.05,-14.41 -52.62,-21.5 -12.78,-5.15 -25.53,-10.35 -38.38,-15.37 -22.96,-8.98 -46.07,-17.7 -69.21,-26.31 -9.51,-3.53 -18.96,-7.12 -28.5,-10.59 -27.86,-10.13 -55.81,-20.04 -83.95,-29.57 -11.49,-3.89 -23.05,-7.64 -34.59,-11.46 -19.82,-6.57 -39.69,-13.07 -59.63,-19.36 -12.77,-4.03 -25.58,-7.96 -38.41,-11.87 -19.56,-5.98 -39.19,-11.8 -58.86,-17.52 -12.45,-3.62 -24.93,-7.23 -37.44,-10.73 -21.55,-6.04 -43.21,-11.83 -64.89,-17.57 -10.46,-2.77 -20.89,-5.63 -31.38,-8.3 -31.79,-8.12 -63.69,-15.97 -95.76,-23.37 -6.89,-1.58 -13.84,-3.02 -20.74,-4.58 -25.63,-5.81 -51.32,-11.45 -77.12,-16.8 -11.79,-2.44 -23.64,-4.74 -35.46,-7.09 -21.65,-4.3 -43.33,-8.47 -65.09,-12.46 -12.18,-2.24 -24.39,-4.4 -36.6,-6.53 -21.97,-3.82 -44,-7.43 -66.07,-10.95 -11.77,-1.88 -23.54,-3.78 -35.36,-5.56 -26.31,-3.95 -52.73,-7.58 -79.19,-11.08 -7.1,-0.94 -14.16,-1.99 -21.27,-2.89 -33.58,-4.23 -67.28,-8.13 -101.1,-11.56 -9.34,-0.94 -18.69,-1.73 -28.04,-2.64 -24.67,-2.38 -49.37,-4.62 -74.14,-6.59 -12.41,-0.98 -24.87,-1.84 -37.31,-2.72 -22.39,-1.58 -44.83,-3 -67.31,-4.26 -12.56,-0.7 -25.13,-1.37 -37.71,-1.97 -23.75,-1.12 -47.57,-1.96 -71.41,-2.72 -10.97,-0.34 -21.93,-0.76 -32.93,-1.02 -34.63,-0.8 -69.33,-1.32 -104.16,-1.32 -34.82,0 -69.54,0.44 -104.16,1.32 -11,0.28 -21.95,0.67 -32.93,1.02 -23.84,0.76 -47.65,1.61 -71.41,2.72 -12.58,0.58 -25.16,1.26 -37.71,1.97 -22.48,1.26 -44.91,2.71 -67.31,4.26 -12.44,0.86 -24.9,1.72 -37.31,2.72 -24.78,1.98 -49.48,4.23 -74.14,6.59 -9.34,0.89 -18.71,1.67 -28.04,2.64 -33.8,3.49 -67.53,7.28 -101.1,11.56 -7.11,0.9 -14.17,1.96 -21.27,2.89 -26.46,3.49 -52.88,7.12 -79.19,11.08 -11.81,1.78 -23.57,3.69 -35.36,5.56 -22.08,3.5 -44.1,7.14 -66.07,10.95 -12.21,2.12 -24.42,4.3 -36.6,6.53 -21.76,3.98 -43.44,8.18 -65.09,12.46 -11.83,2.35 -23.67,4.64 -35.46,7.09 -25.8,5.35 -51.48,11.01 -77.12,16.8 -6.9,1.55 -13.85,2.99 -20.74,4.58 -32.06,7.43 -64,15.2 -95.76,23.37 -10.49,2.7 -20.92,5.55 -31.38,8.3 -21.69,5.72 -43.33,11.53 -64.89,17.57 -12.51,3.5 -24.98,7.11 -37.44,10.73 -19.68,5.71 -39.29,11.56 -58.86,17.52 -12.82,3.91 -25.64,7.84 -38.41,11.87 -19.95,6.3 -39.8,12.82 -59.63,19.36 -11.53,3.81 -23.1,7.54 -34.59,11.46 -28.11,9.59 -56.11,19.41 -83.95,29.57 -9.53,3.48 -19,7.06 -28.5,10.59 -23.14,8.61 -46.25,17.32 -69.21,26.31 -12.85,5.03 -25.59,10.23 -38.38,15.37 -17.59,7.08 -35.15,14.21 -52.62,21.5 -13.44,5.6 -26.82,11.31 -40.19,17.05 -16.92,7.27 -33.77,14.68 -50.59,22.13 -13.35,5.92 -26.68,11.84 -39.96,17.91 -17.13,7.82 -34.13,15.87 -51.16,23.89 -12.53,5.91 -25.11,11.71 -37.57,17.75 -27.29,13.22 -54.45,26.63 -81.38,40.44 -12.81,6.56 -25.49,13.33 -38.24,19.99 -15.91,8.31 -31.85,16.64 -47.65,25.14 -13.81,7.43 -27.52,15.01 -41.22,22.59 -14.54,8.03 -29.04,16.13 -43.48,24.32 -14.05,7.95 -28.05,15.98 -41.99,24.11 -13.71,7.98 -27.33,16.1 -40.94,24.21 -14.29,8.5 -28.57,17.01 -42.74,25.69 -13.62,8.34 -27.1,16.86 -40.61,25.35 -25.69,16.17 -51.26,32.54 -76.61,49.2 -12.31,8.08 -24.7,16.09 -36.92,24.3 -15.48,10.4 -30.8,21.03 -46.15,31.62 -10.66,7.36 -21.33,14.69 -31.92,22.13 -15.55,10.93 -31.01,22.02 -46.41,33.16 -10.08,7.29 -20.12,14.61 -30.13,21.97 -15.57,11.43 -31.09,22.96 -46.49,34.62 -9.44,7.14 -18.78,14.4 -28.18,21.6 -15.78,12.11 -31.57,24.26 -47.18,36.6 -4.69,3.71 -9.3,7.53 -13.98,11.26 -35.42,28.29 -70.4,57.09 -104.92,86.42 -5.98,5.08 -12.02,10.1 -17.98,15.21 -16.29,14.01 -32.43,28.21 -48.52,42.45 -7.24,6.41 -14.49,12.81 -21.7,19.25 -15.85,14.19 -31.57,28.52 -47.2,42.95 -6.99,6.45 -13.94,12.96 -20.88,19.43 -16.18,15.11 -32.28,30.29 -48.22,45.66 -4.22,4.07 -8.38,8.21 -12.59,12.3 -56.12,54.54 -110.83,110.53 -163.98,167.99l-9.05 9.73c-16.22,17.65 -32.26,35.48 -48.19,53.4l-13.54 15.25c-15.75,17.85 -31.36,35.83 -46.81,53.94l-11.33 13.4c-70.72,83.57 -138.38,169.78 -202.77,258.55l-4.84 6.65c-15.14,20.98 -30.09,42.09 -44.88,63.34l-7.63 11.02c-14.95,21.6 -29.74,43.32 -44.3,65.22l-1.81 2.77c-62.84,94.63 -122.07,191.83 -177.54,291.43l-2.79 4.99c-13.36,24.04 -26.48,48.23 -39.4,72.56l-2.71 5.13c-66.85,126.38 -127.71,256.41 -182.17,389.73l-2.28 5.57c-54.74,134.53 -102.98,272.37 -144.34,413.19l-0.12 0.38c-114.95,391.55 -176.89,805.78 -176.89,1234.52 0,133.5 6.01,265.6 17.72,396.05l8715.97 0z"/>
  <polygon class="fil3 str0" points="209.71,6870.45 17141.12,6870.45 17141.12,10278.71 209.71,10278.71 "/>
  <polygon class="fil0" points="2311.41,10139.21 15287.08,10139.21 15287.08,11826.69 2311.41,11826.69 "/>
  <path class="fil4" d="M2107.53 8888.75l-637.93 0 -85.06 209.02c-33.7,83.5 -50.82,143.67 -50.82,181 0,53.43 50.31,79.88 150.4,79.88l111.51 0 0 99.57 -656.6 0 0 -99.57 59.12 0c78.32,0 130.7,-12.97 158.19,-39.42 27.49,-26.45 60.68,-87.65 100.1,-184.12l712.09 -1752.49 88.69 0 749.43 1976.02 211.08 0 0 99.57 -1002.01 0 0 -99.57 270.21 0 -178.41 -469.89zm-594.88 -105.8l554.94 0 -268.14 -706.39 -286.8 706.39zm3643.97 675.27l-1711.51 0 0 -99.57 276.95 0 0 -1839.11 -276.95 0 0 -99.57 1079.81 0 0 99.57 -304.96 0 0 1839.11 192.93 0c107.88,0 187.23,-5.71 238.06,-16.61 51.34,-11.4 107.88,-44.08 170.63,-98.02 62.24,-54.46 115.14,-122.4 158.19,-204.34 43.05,-82.47 81.42,-173.23 114.63,-272.29l93.35 0 -31.12 690.83zm645.2 -793.52l749.96 0 0 357.86 -749.96 0 0 -357.86zm2104.65 -1244.74l808.57 1201.17 0 -879.09c0,-92.32 -9.34,-152.48 -27.5,-180.49 -18.15,-28.01 -66.38,-42.02 -144.18,-42.02l-95.94 0 0 -99.57 619.26 0 0 99.57 -71.58 0c-77.79,0 -126.03,11.41 -145.22,34.76 -19.18,23.33 -29.04,70.01 -29.04,140.03l0 1791.91 -109.43 0 -1206.87 -1792.42 0 1471.89c0,81.95 8.81,134.85 25.93,158.19 17.11,23.34 64.31,34.76 142.1,34.76l118.26 0 0 99.57 -644.15 0 0 -99.57 80.39 0c81.95,0 131.21,-13.49 147.29,-40.97 16.08,-27.5 24.38,-100.11 24.38,-217.32l0 -1406.03c0,-76.75 -7.26,-125.51 -21.78,-145.22 -15.04,-19.7 -57.57,-29.56 -128.62,-29.56l-110.99 0 0 -99.57 769.14 0zm1636.84 1011.35c0,-304.96 90.24,-554.43 270.21,-748.4 180.49,-193.96 396.24,-290.95 648.3,-290.95 233.9,0 443.44,91.28 628.07,273.32 184.64,182.56 276.95,441.88 276.95,778.47 0,314.82 -87.13,567.39 -261.91,757.74 -174.78,189.82 -387.94,284.73 -640,284.73 -272.28,0 -493.74,-100.62 -664.89,-302.36 -171.15,-201.76 -256.73,-452.26 -256.73,-752.55zm1257.18 8.3c0,-311.71 -5.71,-517.61 -17.64,-616.67 -11.4,-99.57 -41.48,-179.44 -89.21,-240.13 -48.23,-60.68 -127.58,-91.28 -237.53,-91.28 -93.36,0 -167.52,24.38 -222.49,73.65 -55.49,49.27 -89.73,128.1 -103.21,236.5 -14,108.39 -20.75,320 -20.75,635.33 0,311.7 5.71,518.12 17.64,619.26 11.41,100.62 42.53,181.01 92.31,240.65 50.31,59.64 129.15,89.72 236.5,89.72 88.68,0 161.29,-23.86 217.83,-72.09 56.01,-48.23 91.28,-126.55 105.28,-234.94 14.01,-108.4 21.27,-321.57 21.27,-640zm1092.78 -8.3c0,-304.96 90.24,-554.43 270.21,-748.4 180.49,-193.96 396.24,-290.95 648.3,-290.95 233.9,0 443.44,91.28 628.07,273.32 184.64,182.56 276.95,441.88 276.95,778.47 0,314.82 -87.13,567.39 -261.91,757.74 -174.78,189.82 -387.94,284.73 -640,284.73 -272.28,0 -493.74,-100.62 -664.89,-302.36 -171.15,-201.76 -256.73,-452.26 -256.73,-752.55zm1257.18 8.3c0,-311.71 -5.71,-517.61 -17.64,-616.67 -11.4,-99.57 -41.48,-179.44 -89.21,-240.13 -48.23,-60.68 -127.58,-91.28 -237.53,-91.28 -93.36,0 -167.52,24.38 -222.49,73.65 -55.49,49.27 -89.73,128.1 -103.21,236.5 -14,108.39 -20.75,320 -20.75,635.33 0,311.7 5.71,518.12 17.64,619.26 11.41,100.62 42.53,181.01 92.31,240.65 50.31,59.64 129.15,89.72 236.5,89.72 88.68,0 161.29,-23.86 217.83,-72.09 56.01,-48.23 91.28,-126.55 105.28,-234.94 14.01,-108.4 21.27,-321.57 21.27,-640zm1808.5 -20.75l0 939.78 264.51 0 0 99.57 -1020.68 0 0 -99.57 258.28 0 0 -1839.11 -258.28 0 0 -99.57 1020.68 0c327.26,0 550.8,50.31 670.09,150.4 119.8,100.62 179.44,207.97 179.44,322.6 0,121.88 -54.46,225.6 -163.89,311.7 -109.43,86.1 -273.32,143.14 -492.19,170.63l0 5.71c164.92,41.49 287.84,96.47 369.27,164.92 81.42,68.47 132.25,144.19 153,227.17 20.75,82.99 31.64,182.04 33.19,296.67 1.55,115.14 11.41,186.19 29.05,213.68 18.15,27.49 50.82,40.97 98.54,40.97 52.9,0 109.94,-16.6 172.18,-49.79l0 115.14c-99.57,51.86 -209.53,77.79 -330.37,77.79 -158.71,0 -285.78,-39.42 -381.2,-118.77 -95.43,-78.84 -146.26,-222.5 -153,-429.95 -6.75,-207.97 -33.71,-342.82 -80.91,-405.58 -47.19,-62.75 -133.29,-94.39 -259.31,-94.39l-108.4 0zm0 -899.33l0 799.74 192.93 0c133.3,0 225.61,-24.38 277.47,-73.64 51.35,-49.28 77.28,-161.29 77.28,-337.12 0,-168.03 -24.38,-274.88 -72.61,-320.52 -48.75,-45.64 -133.3,-68.46 -253.62,-68.46l-221.46 0z"/>
  <path class="fil5" d="M3295.32 11311.93l-133.88 0 0 -365.28 -250.89 0 0 365.28 -134.32 0 0 -846.76 134.32 0 0 332.06 250.89 0 0 -332.06 133.88 0 0 846.76zm548.09 0l-46.01 -201.62 -231.07 0 -45.87 201.62 -144.82 0 223.68 -850.32 164.19 0 224.57 850.32 -144.68 0zm-78.11 -352.23c-42.47,-182.63 -66.43,-286.01 -71.75,-309.92 -5.33,-23.92 -9.18,-42.89 -11.39,-56.73 -9.62,49.42 -36.99,171.56 -81.96,366.65l165.09 0zm302.51 352.23l0 -846.76 134.32 0 0 698.52 257.11 0 0 148.24 -391.43 0zm889.51 0l-46.01 -201.62 -231.07 0 -45.87 201.62 -144.82 0 223.68 -850.32 164.19 0 224.57 850.32 -144.68 0zm-78.11 -352.23c-42.47,-182.63 -66.42,-286.01 -71.75,-309.92 -5.32,-23.92 -9.18,-42.89 -11.39,-56.73 -9.62,49.42 -36.98,171.56 -81.96,366.65l165.09 0zm302.51 352.23l0 -846.76 134.32 0 0 698.52 257.11 0 0 148.24 -391.43 0zm1000.46 0l-152.66 -664.33 -3.85 0c5.48,135.2 8.28,225.33 8.28,270.39l0 393.93 -120.12 0 0 -846.76 182.99 0 149.85 647.52 2.67 0 159.17 -647.52 182.84 0 0 846.76 -125.3 0 0 -400.85c0,-18.77 0.29,-40.71 0.74,-65.42 0.44,-24.71 2.37,-90.33 5.77,-196.87l-3.84 0 -163.46 663.15 -123.09 0zm933.45 0l-364.96 0 0 -846.76 364.96 0 0 147.06 -230.63 0 0 186.19 214.5 0 0 147.06 -214.5 0 0 218.22 230.63 0 0 148.24zm520.12 0l-46.01 -201.62 -231.07 0 -45.87 201.62 -144.82 0 223.68 -850.32 164.2 0 224.56 850.32 -144.68 0zm-78.11 -352.23c-42.46,-182.63 -66.42,-286.01 -71.75,-309.92 -5.32,-23.92 -9.17,-42.89 -11.39,-56.73 -9.62,49.42 -36.98,171.56 -81.96,366.65l165.09 0zm484.93 352.23l-134.33 0 0 -697.34 -172.04 0 0 -149.42 478.41 0 0 149.42 -172.03 0 0 697.34zm888.32 0l-46.01 -201.62 -231.07 0 -45.86 201.62 -144.83 0 223.68 -850.32 164.2 0 224.56 850.32 -144.68 0zm-78.11 -352.23c-42.46,-182.63 -66.42,-286.01 -71.75,-309.92 -5.32,-23.92 -9.17,-42.89 -11.39,-56.73 -9.61,49.42 -36.98,171.56 -81.95,366.65l165.08 0zm864.65 352.23l-170.7 0 -275.75 -640.6 -3.85 0c5.48,113.25 8.29,193.89 8.29,242.13l0 398.48 -120.13 0 0 -846.76 169.54 0 275.16 634.28 3.1 0c-4.44,-110.09 -6.51,-187.97 -6.51,-233.43l0 -400.84 120.85 0 0 846.76zm684.93 -431.49c0,139.35 -29.58,246.09 -88.89,320.21 -59.47,74.11 -145.13,111.28 -257.26,111.28l-179.29 0 0 -846.76 198.82 0c103.4,0 183.74,36.56 240.98,109.5 57.1,72.93 85.65,174.92 85.65,305.77zm-139.49 4.55c0,-181.85 -60.07,-272.77 -180.18,-272.77l-71.46 0 0 551.47 57.7 0c129.29,0 193.93,-92.91 193.93,-278.7zm742.17 -48.62l251.33 0 0 439.39c-40.83,17.79 -79.15,30.24 -115.1,37.35 -35.95,7.12 -72.78,10.68 -110.34,10.68 -95.57,0 -168.5,-37.55 -218.94,-112.67 -50.45,-75.11 -75.6,-182.83 -75.6,-323.37 0,-136.78 29.14,-243.31 87.72,-319.8 58.44,-76.5 139.5,-114.65 243.21,-114.65 65.08,0 127.8,17.4 188.16,52.18l-44.67 143.5c-46.15,-30.83 -94.23,-46.25 -144.23,-46.25 -58.14,0 -104.59,26.09 -139.5,78.27 -35.06,51.99 -52.51,122.16 -52.51,210.12 0,91.9 14.05,162.08 42.31,210.5 28.11,48.42 69.08,72.74 122.78,72.74 27.97,0 56.52,-3.95 85.37,-11.66l0 -176.91 -119.97 0 0 -149.42zm536.54 4.74l43.35 0c42.46,0 73.82,-9.5 93.94,-28.47 20.27,-18.77 30.32,-48.62 30.32,-89.15 0,-40.12 -10.36,-68.78 -30.92,-85.78 -20.71,-17.01 -52.67,-25.5 -96,-25.5l-40.69 0 0 228.89zm0 145.87l0 324.94 -134.32 0 0 -846.76 184.62 0c86.1,0 149.71,20.95 190.98,62.85 41.43,41.91 61.99,105.55 61.99,190.74 0,49.82 -10.21,94.09 -30.76,133.03 -20.43,38.74 -49.42,69.18 -86.99,91.12 95.26,190.34 157.4,313.48 186.24,369.03l-149.11 0 -151.19 -324.94 -71.46 0zm1026.8 -99.42c0,140.34 -25.88,248.05 -77.95,323.37 -52.07,75.31 -126.64,112.86 -223.68,112.86 -97.04,0 -171.59,-37.55 -223.68,-112.86 -52.06,-75.32 -77.95,-183.44 -77.95,-324.36 0,-140.93 26.03,-248.65 78.26,-322.97 52.07,-74.32 126.93,-111.48 224.27,-111.48 97.34,0 171.88,37.35 223.38,112.27 51.62,74.91 77.36,182.63 77.36,323.17zm-462.43 0c0,94.67 13.47,165.84 40.24,213.86 26.92,47.84 67.16,71.76 120.56,71.76 107.25,0 160.8,-95.27 160.8,-285.62 0,-190.75 -53.26,-286.02 -159.91,-286.02 -53.56,0 -93.79,24.12 -121.01,72.15 -27.06,48.03 -40.68,119.39 -40.68,213.87zm862.74 -284.82c-50.59,0 -89.65,25.3 -117.45,76.1 -27.66,50.79 -41.56,121.55 -41.56,212.28 0,188.76 52.96,283.24 159.02,283.24 44.38,0 98.37,-14.82 161.54,-44.67l0 150.61c-51.92,29.06 -110.06,43.49 -174.11,43.49 -92.16,0 -162.58,-37.36 -211.4,-112.08 -48.81,-74.72 -73.22,-182.04 -73.22,-321.79 0,-87.95 11.98,-165.04 35.95,-231.26 23.96,-66.21 58.43,-117.01 103.25,-152.39 44.97,-35.39 97.63,-52.98 157.99,-52.98 61.54,0 123.23,19.96 185.36,59.69l-43.34 145.87c-23.68,-15.02 -47.49,-28.07 -71.45,-39.34 -23.98,-11.26 -47.49,-16.8 -70.57,-16.8zm661.4 709.19l-364.95 0 0 -846.76 364.95 0 0 147.06 -230.63 0 0 186.19 214.5 0 0 147.06 -214.5 0 0 218.22 230.63 0 0 148.24zm266.42 -470.82l43.35 0c42.45,0 73.81,-9.5 93.93,-28.47 20.27,-18.77 30.32,-48.62 30.32,-89.15 0,-40.12 -10.36,-68.78 -30.92,-85.78 -20.71,-17.01 -52.67,-25.5 -96,-25.5l-40.68 0 0 228.89zm0 145.87l0 324.94 -134.33 0 0 -846.76 184.63 0c86.1,0 149.7,20.95 190.98,62.85 41.42,41.91 61.99,105.55 61.99,190.74 0,49.82 -10.22,94.09 -30.77,133.03 -20.42,38.74 -49.41,69.18 -86.99,91.12 95.27,190.34 157.4,313.48 186.25,369.03l-149.12 0 -151.19 -324.94 -71.45 0zm648.83 -173.16l132.25 -348.66 144.67 0 -210.21 517.26 0 329.5 -133.43 0 0 -323.76 -210.21 -523 145.56 0 131.36 348.66z"/>
  <path class="fil5" d="M4726.17 3608.29l74.73 -115.47 -404.86 -262.01 103.33 -159.66 -94.09 -60.89 -281.37 434.79 94.08 60.89 103.32 -159.66 404.86 262.01zm31.54 -1039.69l176.92 153.65 -177.04 203.84 -176.92 -153.65 -90.19 103.85 448.71 389.7 90.19 -103.85 -183.97 -159.77 177.04 -203.85 183.97 159.77 90.19 -103.84 -448.71 -389.7 -90.19 103.85zm659.93 10.86l-95.17 -99.29 199.21 -190.93 -74.02 -77.23 -199.21 190.94 -89.29 -93.17 225.55 -216.19 -76.37 -79.69 -324.24 310.78 411.23 429.06 332.21 -318.42 -76.38 -79.69 -233.52 223.83zm616.56 -1076.05l193.81 304.36 -443.03 -145.66 -95.96 61.11 319.22 501.3 114.59 -72.97 -193.8 -304.36 443.74 145.2 95.24 -60.65 -319.22 -501.3 -114.59 72.97zm965.36 182.63l131.51 -59.48 -487.06 -431.97 -123.77 55.99 3.59 650.65 128.41 -58.08 -4.53 -137.73 251.4 -113.72 100.45 94.34zm-354.66 -93.96l-7.91 -246.16 179.63 168.47 -171.72 77.68zm1191.6 -164.24l-162.11 -571.77 -108.86 30.52 -111.06 414.71 -313.75 -295.59 -109.55 30.72 160.46 572.24 124.26 -34.85 -94.21 -335.99 244.69 228.54 59.67 -16.73 88.94 -330.04 97.1 343.12 124.4 -34.89zm264.17 -140.65l-16.61 -136.54 273.91 -33.31 -12.92 -106.19 -273.91 33.31 -15.57 -128.1 310.14 -37.71 -13.33 -109.57 -445.84 54.22 71.75 589.96 456.8 -55.55 -13.33 -109.57 -321.1 39.06zm1218.68 -512.13l-134.93 -4.11 -166.74 259.09 -150.64 -268.76 -145.96 -4.45 218.33 388.88 -6.46 212.16 137.48 4.18 6.41 -210.45 242.52 -376.55zm295.33 668.94c183.69,33.86 343.34,-68.79 375.5,-243.29 32.17,-174.51 -80.38,-327.34 -264.08,-361.2 -184.52,-34.01 -343.48,69.63 -375.49,243.31 -32.01,173.66 79.55,327.17 264.07,361.18zm21.24 -115.22c-104.37,-19.24 -168.85,-109.69 -148.38,-220.73 20.48,-111.06 112.97,-172.57 217.33,-153.33 104.38,19.24 168.86,109.69 148.39,220.75 -20.48,111.04 -112.96,172.56 -217.34,153.31zm646.76 290.86c160.21,53.64 285.94,-6.34 341.45,-172.18l105.66 -315.6 -128.81 -43.13 -104.04 310.78c-35.84,107.06 -96.57,135.98 -176.27,109.3 -78.9,-26.41 -110.78,-86.33 -74.93,-193.39l104.04 -310.78 -130.43 -43.66 -105.65 315.6c-55.52,165.85 8.75,289.44 168.98,343.06zm707.2 296.28l119.11 68.78 241.15 -417.61 164.69 95.11 56.04 -97.05 -448.49 -258.99 -56.04 97.05 164.68 95.1 -241.15 417.61zm773.61 511.17l2.37 -232.92c82.14,17.9 156.72,-9.21 208.47,-81.79 77.38,-108.54 44.32,-233.26 -84.95,-325.44l-209.45 -149.35 -345.03 483.9 111.98 79.85 96.11 -134.8 97.47 69.5 5.55 3.94 -2.8 201.34 120.28 85.76zm97.48 -395.54c-37.46,52.52 -94.7,59.68 -163.14,10.88l-91.25 -65.06 120.27 -168.67 91.25 65.06c68.43,48.8 80.82,104.56 42.87,157.79zm157.82 653.23c122.01,116.88 261.3,116.29 382.28,-10.01l230.23 -240.33 -98.09 -93.97 -226.7 236.66c-78.11,81.53 -145.37,81.78 -206.06,23.63 -60.09,-57.55 -63.34,-125.35 14.77,-206.88l226.7 -236.65 -99.32 -95.14 -230.22 240.33c-120.98,126.29 -115.6,265.49 6.41,382.36zm402.83 442.39c105.05,133.41 222.7,145.58 300.64,84.21 171.42,-134.98 -101.83,-359.64 -15.67,-427.48 29.45,-23.19 72.9,-17.43 123.33,46.61 32.56,41.35 55.74,95.5 65.22,158.3l108.3 -31.26c-6.79,-64.89 -40.06,-135.96 -86.28,-194.66 -104.53,-132.74 -220.99,-144.77 -300.48,-82.18 -173.43,136.57 100.39,360.76 13.01,429.57 -28.58,22.5 -70.4,13.29 -120.82,-50.74 -44.12,-56.03 -70.33,-130.48 -72.76,-192.34l-110.14 27.32c0.54,66.56 37.36,158.61 95.66,232.64zm279.18 366.2l73.87 116.01 406.77 -259.02 102.15 160.42 94.53 -60.2 -278.18 -436.84 -94.53 60.2 102.14 160.41 -406.76 259.02z"/>
  <path class="fil6" d="M8750.35 1858.84c2325.08,0 4209.94,1884.85 4209.94,4209.94 0,2325.08 -1884.85,4209.94 -4209.94,4209.94 -2325.08,0 -4209.94,-1884.85 -4209.94,-4209.94 0,-2325.08 1884.85,-4209.94 4209.94,-4209.94z"/>
  <path class="fil5 str1" d="M2138.74 6276.7c0,76.77 -39.79,144.62 -119.63,203.79 -79.58,59.18 -170.38,88.76 -272.66,88.76 -85.19,0 -151.77,-21.42 -199.72,-64.53 -48.2,-43.11 -72.18,-103.04 -72.18,-180.08 0,-72.19 8.92,-135.18 26.77,-188.75 20.41,-60.71 60.2,-135.18 119.38,-223.18l46.67 31.38c-38.77,58.41 -66.31,108.91 -82.64,151.76 -16.32,42.86 -24.49,85.46 -24.49,127.79 0,45.41 16.84,80.34 50.51,105.09 33.41,24.74 80.85,36.98 142.07,36.98 87.48,0 158.65,-16.84 213.49,-50.76 54.84,-33.92 82.13,-78.31 82.13,-133.15 0,-9.44 0,-16.83 0,-22.44 0,-5.35 0,-9.7 0,-12.76 0,-19.38 -1.52,-40.81 -4.84,-64.28 -3.32,-23.46 -11.99,-71.67 -25.51,-144.88 -21.17,-118.35 -42.6,-236.69 -63.77,-355.3l-37.49 -26.78c0,-49.23 23.21,-124.47 69.63,-225.73l34.43 16.58c-2.04,6.89 -3.06,15.05 -3.06,23.98 0,20.16 10.2,36.47 30.6,48.97 30.35,17.09 58.92,33.41 85.71,48.97 -5.62,42.85 -10.97,73.71 -16.58,92.07 -5.62,18.62 -17.1,46.17 -34.7,83.15l-22.44 -8.92c0,7.4 7.14,50 21.17,127.53 14.28,77.54 26.27,144.37 36.22,200.74 14.03,80.6 20.92,129.57 20.92,146.91l0 167.07zm534.36 -354.29c0,15.04 -2.3,28.82 -6.64,41.57 -4.59,12.76 -12.75,29.33 -24.49,49.74 -29.33,-66.82 -61.47,-121.67 -96.67,-164.26 -35.2,-42.6 -76.77,-76.77 -124.72,-102.03 0,21.43 -2.56,36.99 -7.4,46.68 -5.1,9.7 -11.98,14.54 -20.92,14.54 -15.04,0 -42.34,-14.28 -82.13,-42.6 -42.86,-30.35 -73.71,-59.42 -92.6,-87.23 -13.52,-19.38 -23.46,-47.44 -30.09,-84.17 -6.89,-36.98 -10.21,-67.08 -10.21,-90.29 0,-35.97 9.45,-53.83 28.32,-53.83 29.33,0 72.95,17.35 131.1,52.03 57.9,34.7 112.49,76.27 163.75,124.73 115.04,106.87 172.69,205.07 172.69,295.11zm293.83 372.91l-54.83 0c-31.38,0 -61.22,-25.76 -89.28,-77.03 -29.84,-54.84 -44.89,-117.84 -44.89,-188.5 -43.87,130.85 -104.83,220.89 -183.4,269.61 -76.26,47.18 -192.57,70.91 -349.18,70.91l-86.47 -1.53 0 -45.91c35.71,-12.5 71.17,-24.75 106.11,-36.99 35.2,-12.23 61.47,-22.95 78.81,-31.88 101.27,-51.52 169.88,-89.02 205.84,-112.23 63.51,-41.57 109.43,-84.93 137.74,-130.34 33.41,-53.57 50,-118.86 50,-196.4 0,-46.42 -3.57,-91.57 -10.72,-135.44 -6.88,-43.87 -14.03,-87.48 -21.42,-131.1 0,-33.92 28.82,-102.79 86.47,-206.6 26.01,85.18 42.59,196.65 49.74,334.13 3.82,97.18 7.9,194.37 12.24,291.54 7.9,82.9 27.55,124.21 58.41,124.21l54.83 0 0 203.55zm800.39 0l-852.43 0 0 -203.55 530.79 0c-60.45,-62.48 -116.06,-107.38 -167.32,-134.67 -45.41,-24.49 -89.53,-36.73 -132.9,-36.73 -13.01,0 -24.74,0.51 -35.45,1.78 -10.72,1.27 -26.27,4.34 -46.68,8.93 27.3,-62.24 57.9,-108.15 91.57,-137.74 33.41,-29.59 71.67,-44.38 114.52,-44.38 32.91,0 64.28,7.91 94.89,23.73 30.35,15.81 64.28,41.57 102.02,76.77 30.1,27.55 72.19,70.91 127.03,130.08 37.23,41.58 65.8,68.62 85.45,81.11 19.63,12.24 49.23,22.7 88.5,31.12l0 203.55z"/>
  <path class="fil5 str1" d="M14226.53 6232.01c0,76.77 -39.79,144.62 -119.63,203.79 -79.58,59.18 -170.38,88.76 -272.66,88.76 -85.19,0 -151.77,-21.42 -199.72,-64.53 -48.2,-43.11 -72.18,-103.04 -72.18,-180.08 0,-72.19 8.92,-135.18 26.77,-188.75 20.41,-60.71 60.2,-135.18 119.38,-223.18l46.67 31.38c-38.77,58.41 -66.31,108.91 -82.64,151.76 -16.32,42.86 -24.49,85.46 -24.49,127.79 0,45.41 16.84,80.34 50.51,105.09 33.41,24.74 80.85,36.98 142.07,36.98 87.48,0 158.65,-16.84 213.49,-50.76 54.84,-33.92 82.13,-78.31 82.13,-133.15 0,-9.44 0,-16.83 0,-22.44 0,-5.35 0,-9.7 0,-12.76 0,-19.38 -1.52,-40.81 -4.84,-64.28 -3.32,-23.46 -11.99,-71.67 -25.51,-144.88 -21.17,-118.35 -42.6,-236.69 -63.77,-355.3l-37.49 -26.78c0,-49.23 23.21,-124.47 69.63,-225.73l34.43 16.58c-2.04,6.89 -3.06,15.05 -3.06,23.98 0,20.16 10.2,36.47 30.6,48.97 30.35,17.09 58.92,33.41 85.71,48.97 -5.62,42.85 -10.97,73.71 -16.58,92.07 -5.62,18.62 -17.1,46.17 -34.7,83.15l-22.44 -8.92c0,7.4 7.14,50 21.17,127.53 14.28,77.54 26.27,144.37 36.22,200.74 14.03,80.6 20.92,129.57 20.92,146.91l0 167.07zm534.36 -354.29c0,15.04 -2.3,28.82 -6.64,41.57 -4.59,12.76 -12.75,29.33 -24.49,49.74 -29.33,-66.82 -61.47,-121.67 -96.67,-164.26 -35.2,-42.6 -76.77,-76.77 -124.72,-102.03 0,21.43 -2.56,36.99 -7.4,46.68 -5.1,9.7 -11.98,14.54 -20.92,14.54 -15.04,0 -42.34,-14.28 -82.13,-42.6 -42.86,-30.35 -73.71,-59.42 -92.6,-87.23 -13.52,-19.38 -23.46,-47.44 -30.09,-84.17 -6.89,-36.98 -10.21,-67.08 -10.21,-90.29 0,-35.97 9.45,-53.83 28.32,-53.83 29.33,0 72.95,17.35 131.1,52.03 57.9,34.7 112.49,76.27 163.75,124.73 115.04,106.87 172.69,205.07 172.69,295.11zm293.83 372.91l-54.83 0c-31.38,0 -61.22,-25.76 -89.28,-77.03 -29.84,-54.84 -44.89,-117.84 -44.89,-188.5 -43.87,130.85 -104.83,220.89 -183.4,269.61 -76.26,47.18 -192.57,70.91 -349.18,70.91l-86.47 -1.53 0 -45.91c35.71,-12.5 71.17,-24.75 106.11,-36.99 35.2,-12.23 61.47,-22.95 78.81,-31.88 101.27,-51.52 169.88,-89.02 205.84,-112.23 63.51,-41.57 109.43,-84.93 137.74,-130.34 33.41,-53.57 50,-118.86 50,-196.4 0,-46.42 -3.57,-91.57 -10.72,-135.44 -6.88,-43.87 -14.03,-87.48 -21.42,-131.1 0,-33.92 28.82,-102.79 86.47,-206.6 26.01,85.18 42.59,196.65 49.74,334.13 3.82,97.18 7.9,194.37 12.24,291.54 7.9,82.9 27.55,124.21 58.41,124.21l54.83 0 0 203.55zm800.39 0l-852.43 0 0 -203.55 530.79 0c-60.45,-62.48 -116.06,-107.38 -167.32,-134.67 -45.41,-24.49 -89.53,-36.73 -132.9,-36.73 -13.01,0 -24.74,0.51 -35.45,1.78 -10.72,1.27 -26.27,4.34 -46.68,8.93 27.3,-62.24 57.9,-108.15 91.57,-137.74 33.41,-29.59 71.67,-44.38 114.52,-44.38 32.91,0 64.28,7.91 94.89,23.73 30.35,15.81 64.28,41.57 102.02,76.77 30.1,27.55 72.19,70.91 127.03,130.08 37.23,41.58 65.8,68.62 85.45,81.11 19.63,12.24 49.23,22.7 88.5,31.12l0 203.55z"/>
  <path class="fil7" d="M5821.02 6743.68l0 -160.62 97.01 0 26.47 -924.9 -51.81 0 0 -115.37 55.06 0 23.54 -822.91 -69.39 0 0 -66.69 41.18 0 0 -22.4 40.07 0 0 -299.34 -40.07 0 0 -28.64 65.17 0c-2.3,-7.26 -4.15,-14.7 -5.54,-22.28l0 -1.22 -0.21 0c-1.9,-10.71 -2.86,-21.74 -2.86,-33.05 0,-8.04 0.49,-15.97 1.47,-23.74l1.59 0 0 -10.49c1.7,-9.38 4.11,-18.52 7.14,-27.37l0.43 0 0 -1.26c0.74,-2.13 1.51,-4.23 2.34,-6.31l1.45 0 0 -3.62c1.08,-2.61 2.23,-5.19 3.42,-7.73l0.36 0 0 -0.77c1.08,-2.3 2.22,-4.56 3.39,-6.81l0.4 0 0 -0.76c3.31,-6.27 6.99,-12.32 10.96,-18.16l0.4 0 0 -0.58 2.25 -3.2 1.53 0 0 -2.11c2.34,-3.17 4.76,-6.26 7.28,-9.26l0.29 0 0 -0.35 2.97 -3.44 0.82 0 0 -0.91c4.46,-4.99 9.18,-9.74 14.13,-14.23l1.01 0 0 -0.91 3.28 -2.87 0.5 0 0 -0.43c4.56,-3.86 9.3,-7.51 14.2,-10.93l0.94 0 0 -0.66c2.64,-1.81 5.31,-3.57 8.03,-5.25 33.86,-20.92 62.69,-47.68 85.44,-79.69l0 -0.09c-3.13,-2.92 -5.4,-6.71 -6.4,-11.02l0 -1.7 -0.31 0c-0.15,-1.03 -0.23,-2.09 -0.23,-3.17 0,-1.51 0.15,-2.98 0.45,-4.4l0.09 0 0 -0.48c1.55,-6.81 6.33,-12.46 12.64,-15.22l5.09 -78.97c-22.77,-7.46 -39.33,-28.68 -39.33,-53.98 0,-28.98 21.66,-52.86 49.66,-56.56 -16.04,7.77 -27.18,24.19 -27.18,43.18 0,26.54 21.44,47.98 47.95,47.98 19.04,0 35.46,-11.09 43.22,-27.17 -3.65,28 -27.54,49.69 -56.56,49.69 -3.48,0 -6.85,-0.48 -10.14,-1.06l4.95 76.89c5.02,2.21 9.1,6.27 11.32,11.29l0 0.63 0.28 0c1.04,2.53 1.6,5.28 1.6,8.18 0,6.34 -2.71,11.91 -6.96,15.89l0.03 0.09c22.7,31.78 51.75,58.77 85.15,79.69l3.17 2 0 0.13 0.2 0c5.15,3.33 10.15,6.89 14.94,10.68l0 0.69 0.87 0 2.92 2.38 0 1.4 1.66 0c9.04,7.7 17.37,16.21 24.84,25.44l0 1.05 0.85 0 2.93 3.78 0 0.01 0.01 0c2.64,3.49 5.16,7.06 7.56,10.73l0 0.62 0.4 0c5.63,8.67 10.57,17.83 14.74,27.39l0 2.9 1.23 0c0.89,2.13 1.74,4.27 2.56,6.44l0 1.14 0.42 0c1.21,3.3 2.34,6.64 3.37,10.03l0 1.32 0.38 0c1.28,4.31 2.42,8.7 3.39,13.14l0 5.79 1.17 0c1.2,6.43 2.09,12.98 2.62,19.61l0 10.67 0.56 0 0.06 4.81c0,3.47 -0.09,6.92 -0.27,10.33l-0.35 0 0 5.23c-0.68,8.53 -1.95,16.9 -3.73,25.06l-0.06 0 0 0.25c-1.17,5.3 -2.57,10.55 -4.2,15.68l65.18 0 0 28.64 -41.41 0 0 299.34 41.41 0 0 22.4 40.78 0 0 66.69 -69 0 23.36 822.91 54.83 0 0 115.37 -51.58 0 26.25 924.9 264.1 0 0 -95.73 91.38 0 32.51 -1136.77 -65.5 0 0 -145.94 69.67 0 29.72 -1040.87 -87.72 0 0 -84.37 52.07 0 0 -28.32 50.69 0 0 -378.62 -50.69 0 0 -36.23 82.45 0 -1.61 -5.31 0 -2.7 -0.76 0c-1.11,-4.04 -2.13,-8.1 -3.02,-12.2l0 -14.29 -2.68 0c-0.42,-2.69 -0.78,-5.39 -1.11,-8.1l0 -14.62 -1.3 0c-0.27,-4.73 -0.4,-9.52 -0.4,-14.33 0,-5.35 0.17,-10.68 0.52,-15.95l1.18 0 0 -12.79c0.54,-4.61 1.21,-9.18 2.03,-13.71l1.76 0 0 -8.88c1.01,-4.66 2.18,-9.27 3.45,-13.83l0.33 0 0 -1.19c0.98,-3.42 2.04,-6.8 3.16,-10.16l0.63 0 0 -1.86 2.07 -5.73 1.71 0 0 -4.48c0.91,-2.31 1.88,-4.6 2.85,-6.87l0.94 0 0 -2.12 2.5 -5.46 1.28 0 0 -2.68c3.37,-6.87 7.05,-13.57 11.03,-20.05l0.32 0 0 -0.5c2.28,-3.68 4.65,-7.31 7.12,-10.85l0.46 0 0 -0.66 2.21 -3.13 1.58 0 0 -2.15c2.32,-3.13 4.69,-6.19 7.16,-9.21l0.4 0 0 -0.48 2.76 -3.31 1.03 0 0 -1.18c6.56,-7.6 13.59,-14.78 21.03,-21.52l1.68 0 0 -1.51 2.6 -2.28 1.18 0 0 -1 3.32 -2.79 0.47 0 0 -0.38c3.02,-2.47 6.11,-4.86 9.25,-7.19l2.12 0 0 -1.54 3.14 -2.24 0.64 0 0 -0.45c3.49,-2.44 7.05,-4.77 10.67,-7 42.82,-26.39 79.29,-60.34 108.06,-100.85l0 -0.04c-5.35,-5.06 -8.75,-12.12 -8.75,-20.12 0,-11.34 6.88,-21.11 16.64,-25.42l6.46 -99.86c-2.79,-0.92 -5.52,-2.01 -8.14,-3.25l0 -0.44 -0.93 0c-2.29,-1.1 -4.5,-2.34 -6.65,-3.66l0 -0.12 -0.19 0c-9.04,-5.68 -16.76,-13.29 -22.51,-22.26l0 -0.46 -0.3 0c-1.26,-2 -2.43,-4.05 -3.49,-6.18l0 -1.38 -0.66 0c-4.38,-9.26 -6.84,-19.6 -6.84,-30.56 0,-7.83 1.24,-15.37 3.56,-22.43l0.15 0 0 -0.47c1.74,-5.18 4.05,-10.1 6.85,-14.67l0.73 0 0 -1.16c8.52,-13.34 21.33,-23.69 36.48,-29.12l1.37 0 0 -0.48c4.38,-1.47 8.95,-2.55 13.67,-3.16 -20.34,9.83 -34.38,30.53 -34.38,54.57 0,33.56 27.13,60.74 60.67,60.74 24.06,0 44.83,-14.1 54.64,-34.42 -0.61,4.68 -1.68,9.24 -3.14,13.6l-0.6 0 0 1.73c-5.47,14.98 -15.71,27.65 -28.91,36.13l-1.37 0 0 0.85c-4.48,2.75 -9.3,5 -14.36,6.72l-0.78 0 0 0.26c-7.04,2.31 -14.56,3.55 -22.37,3.55l-0.34 0 0 -0.03 -1.5 0 -0.21 0c-3.67,-0.13 -7.24,-0.61 -10.77,-1.3l6.29 97.28c9.79,4.31 16.67,14.08 16.67,25.42 0,7.99 -3.43,15.05 -8.75,20.12l0 0.04c28.74,40.21 65.51,74.46 107.73,100.85 5.29,3.27 10.46,6.73 15.48,10.38l0 0.85 1.14 0 2.65 1.98 0 1.81 2.36 0c3.06,2.37 6.05,4.82 8.99,7.34l0 0.23 0.26 0 3.52 3.08 0 0.71 0.79 0 3 2.75 0 1.03 1.1 0c4.87,4.59 9.57,9.41 14.04,14.39l0 0.75 0.68 0 3.1 3.54 0 0.24 0.21 0c2.54,2.97 4.98,5.98 7.36,9.05l0 2.32 1.77 0 2.02 2.71 0 1.06 0.77 0c2.34,3.23 4.6,6.53 6.79,9.88l0 1.48 0.97 0c3.71,5.79 7.18,11.74 10.4,17.85l0 1.08 0.56 0c1.11,2.12 2.18,4.26 3.21,6.41l0 1.16 0.56 0c1.11,2.34 2.19,4.68 3.23,7.08l0 4.27 1.81 0 1.98 4.93 0 2.64 1 0c0.97,2.6 1.91,5.2 2.79,7.84l0 3.51 1.14 0c2.57,8.06 4.71,16.31 6.42,24.73l0 9.35 1.7 0c0.88,5.41 1.58,10.9 2.09,16.44l0 13.86 0.88 0c0.09,2.78 0.13,5.57 0.13,8.37 0,2.26 -0.02,4.51 -0.08,6.77l-0.93 0 0 15.65c-0.33,3.64 -0.75,7.25 -1.24,10.84l-2.55 0 0 14.85c-0.8,3.92 -1.69,7.8 -2.7,11.65l-1.08 0 0 4.02c-0.72,2.61 -1.48,5.19 -2.31,7.77l82.44 0 0 36.23 -52.38 0 0 378.62 52.38 0 0 28.32 51.58 0 0 84.37 -87.26 0 29.57 1040.87 69.32 0 0 145.94 -65.18 0 8.32 294.49 180.14 0c-3.21,-10.38 -6.29,-20.83 -9.22,-31.33l0 -1.92 -0.52 0c-6.96,-25.1 -13.1,-50.53 -18.4,-76.27l0 -3.22 -0.65 0c-1.08,-5.32 -2.13,-10.66 -3.13,-16l0 -2.93 -0.55 0c-1.12,-6.05 -2.21,-12.11 -3.24,-18.2l0 -0.72 -0.13 0c-2.84,-16.83 -5.32,-33.78 -7.45,-50.85l0 -5.94 -0.71 0c-1.14,-9.53 -2.16,-19.07 -3.06,-28.66l0 -5.41 -0.5 0c-1.41,-15.68 -2.51,-31.48 -3.29,-47.34l0 -17.01 -0.71 0c-0.48,-13.87 -0.73,-27.8 -0.73,-41.78 0,-15.17 0.32,-30.26 0.88,-45.29l0.56 0 0 -13.47c0.78,-15.78 1.92,-31.49 3.31,-47.1l0.48 0 0 -5.29c1.01,-10.9 2.19,-21.76 3.51,-32.56l0.26 0 0 -2.12c2.12,-17.09 4.6,-34.03 7.44,-50.89l0.14 0 0 -0.79c3.2,-18.82 6.84,-37.49 10.91,-55.99l0.44 0 0 -1.97c6.4,-28.78 13.84,-57.16 22.3,-85.09l0.42 0 0 -1.38c5.69,-18.67 11.83,-37.13 18.41,-55.39l0.51 0 0 -1.4 3.66 -9.97 0.13 0 0 -0.36c2.32,-6.22 4.68,-12.4 7.09,-18.56l0.47 0 0 -1.23c4.84,-12.31 9.89,-24.52 15.13,-36.61l0.01 0 0 -0.04 3.33 -7.54 0.46 0 0 -1.04c7.2,-16.25 14.75,-32.31 22.66,-48.16l0.06 0 0 -0.11 3.73 -7.47 0.05 0 0 -0.12c11.75,-23.12 24.26,-45.81 37.45,-68.02l0.4 0 0 -0.65c3.64,-6.13 7.36,-12.21 11.11,-18.27l0.25 0 0 -0.39c11.9,-19.17 24.31,-37.97 37.26,-56.4l0.58 0 0 -0.8 7.54 -10.55 0.04 0 0 -0.05c7.36,-10.21 14.87,-20.3 22.55,-30.24l0.16 0 0 -0.2c4.86,-6.3 9.79,-12.53 14.76,-18.72l0.38 0 0 -0.47c13.39,-16.63 27.25,-32.87 41.51,-48.74l0.12 0 0 -0.13 3.26 -3.65 0.53 0 0 -0.59c35.3,-38.88 73.21,-75.34 113.39,-109.19l0.17 0 0 -0.14c12.21,-10.29 24.65,-20.35 37.28,-30.14l0.57 0 0 -0.43c4.75,-3.68 9.54,-7.31 14.35,-10.93l0.79 0 0 -0.59c13.61,-10.18 27.42,-20.09 41.46,-29.69l0.18 0 0 -0.12 11.05 -7.44 0.3 0 0 -0.21 11.23 -7.37 0.13 0 0 -0.08c7.42,-4.82 14.89,-9.59 22.42,-14.24 207.12,-127.99 383.82,-293.24 524.75,-489.02 -4.8,-4.52 -9.3,-9.39 -13.42,-14.54l0 -0.73 -0.57 0c-9.59,-12.17 -17.15,-25.99 -22.13,-40.99l0 -0.65 -0.21 0c-4.26,-13.05 -6.58,-26.98 -6.58,-41.49 0,-7.79 0.65,-15.43 1.92,-22.86l1.08 0 0 -5.6c0.98,-4.54 2.19,-8.97 3.6,-13.33l0.19 0 0 -0.59c4.97,-15.03 12.5,-28.88 22.09,-41.05l0.61 0 0 -0.78 2.48 -3 1.31 0 0 -1.53 2.02 -2.26 1.77 0 0 -1.9c4.5,-4.75 9.35,-9.19 14.5,-13.25l0.64 0 0 -0.5c3.21,-2.5 6.54,-4.86 9.97,-7.07l1.38 0 0 -0.88c5.55,-3.49 11.37,-6.59 17.43,-9.25l31.31 -483.83c-4.93,-1.62 -9.83,-3.36 -14.66,-5.18l0 -0.55 -1.42 0c-5.91,-2.27 -11.75,-4.68 -17.51,-7.25l0 -0.31 -0.7 0c-2.31,-1.03 -4.58,-2.1 -6.86,-3.18l0 -0.61 -1.28 0c-7.28,-3.5 -14.44,-7.24 -21.44,-11.22l0 -0.13 -0.23 0c-3.75,-2.14 -7.46,-4.32 -11.12,-6.6l0 -0.98 -1.55 0c-12.66,-7.92 -24.79,-16.63 -36.3,-26.06l0 -0.43 -0.52 0 -3.27 -2.74 0 -1.04 -1.26 0c-14.53,-12.36 -28.04,-25.91 -40.37,-40.45l0 -1.2 -1.02 0 -2.77 -3.33 0 -0.44 -0.36 0c-9.47,-11.57 -18.2,-23.74 -26.14,-36.46l0 -1.4 -0.85 0c-2.31,-3.73 -4.54,-7.52 -6.71,-11.35 -4.03,-7.1 -7.82,-14.35 -11.36,-21.76l0 -0.95 -0.46 0c-1.13,-2.41 -2.24,-4.83 -3.32,-7.27l0 -0.31 -0.14 0c-2.65,-5.93 -5.12,-11.96 -7.44,-18.06l0 -0.86 -0.32 0c-2.64,-7.02 -5.05,-14.15 -7.24,-21.37l0 -1.34 -0.41 0c-1.2,-4 -2.32,-8.02 -3.38,-12.09l0 -3.05 -0.78 0c-1.08,-4.31 -2.09,-8.65 -3.01,-13.03l0 -2.11 -0.44 0c-1.28,-6.34 -2.4,-12.74 -3.35,-19.18l0 -3.54 -0.49 0c-2.12,-15.58 -3.23,-31.5 -3.23,-47.66 0,-14.63 0.92,-29.04 2.66,-43.19l1.06 0 0 -7.89c1.67,-11.44 3.89,-22.69 6.64,-33.74l0.94 0 0 -3.71c0.99,-3.84 2.07,-7.65 3.2,-11.43l0.59 0 0 -2.04c0.95,-3.13 1.97,-6.23 3,-9.34l0.77 0 0 -2.29c3.27,-9.53 6.95,-18.86 10.98,-27.99l0.39 0 0 -0.88 3.07 -6.7 0.71 0 0 -1.52 2.97 -6.04 0.81 0 0 -1.63 3.1 -5.95 0.69 0 0 -1.29 3.45 -6.27 0.34 0 0 -0.6c3.53,-6.24 7.25,-12.34 11.14,-18.33l0.21 0 0 -0.31c2.44,-3.73 4.94,-7.4 7.52,-11.04l0.05 0 0 -0.08 2.68 -3.71 1.11 0 0 -1.52c2.45,-3.33 4.95,-6.6 7.51,-9.84l0.05 0 0 -0.07 3 -3.71 0.79 0 0 -0.98c19.7,-24 42.53,-45.32 67.85,-63.37l0.29 0 0 -0.21c3.53,-2.51 7.11,-4.97 10.74,-7.36l0.61 0 0 -0.39 5.29 -3.39 2.29 0 0 -1.42c3.4,-2.1 6.86,-4.16 10.33,-6.15l1.02 0 0 -0.59c6.71,-3.81 13.55,-7.4 20.52,-10.77l2.21 0 0 -1.03 5.93 -2.76 1.63 0 0 -0.72c2.34,-1.03 4.7,-2.07 7.07,-3.06l0.5 0 0 -0.2c2.95,-1.23 5.91,-2.44 8.88,-3.58l2.48 0 0 -0.96c10.52,-3.98 21.31,-7.43 32.29,-10.4l1.77 0 0 -0.48c4.52,-1.2 9.06,-2.29 13.65,-3.3l5.28 0 0 -1.14c4.74,-0.97 9.52,-1.87 14.32,-2.65l7.71 0c-97.05,48.34 -163.91,148.22 -163.91,263.93 0,162.97 132.09,295.03 295.05,295.03 117.03,0 217.88,-68.31 265.52,-167.12 -0.57,4.43 -1.25,8.83 -2,13.21l-0.29 0 0 1.73c-0.78,4.5 -1.65,8.96 -2.62,13.41l-1.16 0 0 5.27c-1.06,4.59 -2.21,9.14 -3.44,13.66l-0.35 0 0 1.24c-3.1,11.17 -6.75,22.13 -10.9,32.82l-0.45 0 0 1.15 -2.6 6.43 -1.19 0 0 2.89c-1.21,2.84 -2.47,5.67 -3.74,8.46l-0.05 0 0 0.09c-1.14,2.51 -2.33,5 -3.54,7.49l-0.24 0 0 0.49c-1.16,2.37 -2.35,4.73 -3.56,7.07l-0.22 0 0 0.43c-3.26,6.28 -6.69,12.44 -10.3,18.5l-1.06 0 0 1.73 -3.62 5.84 -0.16 0 0 0.26 -2.26 3.52 -1.53 0 0 2.35 -3.53 5.22 -0.26 0 0 0.39c-8.13,11.78 -16.97,23.01 -26.43,33.68l-0.06 0 0 0.06 -3.35 3.73 -0.43 0 0 0.48 -3.07 3.3 -0.72 0 0 0.78 -2.9 3 -0.89 0 0 0.92 -2.82 2.87 -0.97 0 0 0.95 -2.86 2.84 -0.91 0 0 0.88 -3.07 2.9 -0.72 0 0 0.69 -3.36 3.09 -0.43 0 0 0.39 -3.78 3.4 -0.01 0 0 0.01c-4.4,3.89 -8.93,7.67 -13.54,11.35l-1.6 0 0 1.26 -3.2 2.52 -0.58 0 0 0.44c-3.18,2.44 -6.4,4.8 -9.65,7.13l-1.7 0 0 1.22 -3.73 2.57 -0.06 0 0 0.04c-22.22,15.23 -46.29,27.97 -71.79,37.8l-0.13 0 0 0.05c-3.38,1.29 -6.8,2.54 -10.23,3.74l-1.13 0 0 0.4c-3.4,1.17 -6.82,2.32 -10.27,3.39l-4.87 0 0 1.45c-2.75,0.81 -5.51,1.59 -8.27,2.33l-3.08 0 0 0.82c-4.11,1.06 -8.26,2.06 -12.44,2.97l-2.7 0 0 0.6c-5.71,1.21 -11.46,2.26 -17.26,3.18l-5.47 0 0 0.83c-9.75,1.41 -19.64,2.38 -29.64,2.96l-12 0 0 0.51c-2.81,0.08 -5.65,0.1 -8.46,0.1 -2.24,0 -4.45,-0.01 -6.68,-0.07l0 -0.54 -12.96 0c-9.69,-0.59 -19.23,-1.62 -28.68,-2.98l0 -0.81 -5.5 0c-2.86,-0.45 -5.73,-0.93 -8.57,-1.45l30.58 472.09c6.1,2.69 11.96,5.82 17.56,9.34l0 0.79 1.24 0c3.49,2.25 6.86,4.64 10.11,7.19l0 0.38 0.49 0c5.2,4.11 10.11,8.58 14.65,13.41l0 1.73 1.62 0 2.17 2.44 0 1.35 1.15 0 2.63 3.2 0 0.58 0.45 0c7.49,9.51 13.74,20.06 18.48,31.39l0 2.68 1.09 0c0.97,2.46 1.86,4.96 2.69,7.48l0 0.1 0.03 0c1.49,4.58 2.76,9.28 3.76,14.07l0 8.64 1.49 0c0.88,6.24 1.34,12.58 1.34,19.07 0,14.51 -2.31,28.45 -6.56,41.49l-0.07 0 0 0.22c-4.98,15.18 -12.58,29.14 -22.26,41.42l-0.45 0 0 0.58c-4.13,5.18 -8.62,10.08 -13.44,14.61 140.92,195.27 319.22,362.14 524.64,489.1 11.44,7.07 22.74,14.34 33.91,21.79l0 0.11 0.17 0 11.18 7.53 0 0.03 0.04 0c8.92,6.1 17.73,12.31 26.46,18.64l0 0.29 0.4 0c4.94,3.58 9.86,7.21 14.74,10.87l0 0.48 0.65 0c4.86,3.64 9.7,7.31 14.49,11.03l0 0.33 0.43 0c12.69,9.85 25.16,19.93 37.42,30.27l0 0.01 0.01 0 3.77 3.18 0 0.61 0.73 0c8.7,7.4 17.29,14.93 25.77,22.59l0 0.11 0.13 0c27.69,24.99 54.17,51.27 79.37,78.77l0 0.74 0.67 0 3.11 3.38 0 0.4 0.37 0c15.52,17.12 30.54,34.71 45.05,52.73l0 0.27 0.21 0c15.69,19.49 30.79,39.51 45.22,59.99l0 0.58 0.42 0c13.02,18.49 25.47,37.4 37.42,56.66l0 0.13 0.09 0c3.81,6.14 7.57,12.31 11.27,18.53l0 0.39 0.24 0c23.75,39.94 45.16,81.42 64.12,124.25l0 0.67 0.3 0c6.5,14.71 12.72,29.58 18.62,44.6l0 0.82 0.32 0c3.8,9.71 7.48,19.48 11.04,29.32l0 0.97 0.35 0c5.21,14.46 10.13,29.06 14.79,43.78l0 1.63 0.51 0 3.27 10.49 0 0.87 0.26 0c8.54,28.16 16.03,56.79 22.46,85.81l0 1.25 0.28 0c2.61,11.85 5.02,23.77 7.28,35.75l0 2.12 0.41 0c1.18,6.33 2.31,12.68 3.38,19.04l0 3.67 0.63 0c1.11,6.72 2.16,13.45 3.16,20.21l0 2.51 0.35 0c1.24,8.52 2.37,17.09 3.43,25.68l0 0.82 0.11 0c1.39,11.39 2.61,22.84 3.67,34.33l0 3.52 0.32 0c1.52,16.9 2.68,33.92 3.47,51.02l0 13.33 0.54 0c0.5,13.77 0.74,27.62 0.74,41.51 0,11.43 -0.16,22.84 -0.49,34.19l-0.79 0 0 21.24c-0.79,17 -1.95,33.89 -3.45,50.69l-0.34 0 0 3.76c-0.94,10.14 -2.02,20.25 -3.21,30.31l-0.57 0 0 4.73c-2.95,23.89 -6.6,47.55 -10.95,70.98l-0.41 0 0 2.17c-1.05,5.61 -2.15,11.2 -3.27,16.77l-0.52 0 0 2.55c-1.12,5.47 -2.29,10.92 -3.48,16.38l-0.29 0 0 1.3c-3.29,14.81 -6.85,29.52 -10.68,44.12l-0.68 0 0 2.62 -3.4 12.52 -0.38 0 0 1.39c-2.98,10.68 -6.1,21.31 -9.36,31.85l212.82 0 0.95 -33.24 0 -0.06 7.49 -261.19 -65.53 0 0 -145.94 69.69 0 22.42 -785.24 0 -0.01 7.3 -255.61 -87.7 0 0 -84.37 52.08 0 0 -28.32 50.72 0 0 -378.62 -50.72 0 0 -36.23 82.45 0 -1.14 -3.7 0 -0.53 -0.16 0c-1.34,-4.54 -2.56,-9.15 -3.62,-13.79l0 -12.7 -2.54 0c-0.46,-2.66 -0.88,-5.34 -1.24,-8.03l0 -18.47 -1.79 0c-0.27,-4.73 -0.41,-9.52 -0.41,-14.33 0,-6.65 0.27,-13.24 0.8,-19.73l1.4 0 0 -12.93c0.62,-4.57 1.37,-9.09 2.24,-13.57l1.54 0 0 -7.29c1.78,-7.82 3.93,-15.49 6.46,-22.99l1.11 0 0 -3.24c0.95,-2.74 1.96,-5.44 3.02,-8.13l0.77 0 0 -1.91c0.76,-1.9 1.53,-3.78 2.35,-5.66l1.43 0 0 -3.26 2.01 -4.31 1.78 0 0 -3.67c3.23,-6.53 6.75,-12.87 10.54,-19.05l0.81 0 0 -1.29c2.13,-3.42 4.33,-6.77 6.61,-10.06l0.96 0 0 -1.36 1.72 -2.43 2.06 0 0 -2.8 3.65 -4.76 0.14 0 0 -0.17 2.9 -3.62 0.89 0 0 -1.09 2.27 -2.7 1.52 0 0 -1.75c6.42,-7.4 13.3,-14.38 20.55,-20.95l2.16 0 0 -1.94 2.13 -1.86 1.66 0 0 -1.41 2.84 -2.38 0.95 0 0 -0.77 3.78 -3.01 4.99 -3.79 2.58 0 0 -1.88 2.68 -1.91 1.1 0 0 -0.77c3.34,-2.31 6.76,-4.53 10.22,-6.68 42.79,-26.39 79.31,-60.34 108.01,-100.85l0 -0.04c-4.39,-4.19 -7.51,-9.75 -8.44,-16.08l0 -0.5 -0.08 0c-0.15,-1.14 -0.22,-2.33 -0.22,-3.53 0,-1.37 0.09,-2.73 0.3,-4.04l0 -0.05c0.85,-5.82 3.56,-11.04 7.45,-15.09l0.12 0 0 -0.12c2.5,-2.57 5.48,-4.66 8.77,-6.12l6.45 -99.86c-2.63,-0.86 -5.16,-1.88 -7.64,-3.01l0 -0.68 -1.44 0c-2.1,-1.02 -4.15,-2.15 -6.14,-3.35l0 -0.43 -0.68 0c-18.2,-11.42 -30.97,-30.61 -33.38,-53.06l0 -3.73 -0.3 0c-0.08,-1.35 -0.12,-2.7 -0.12,-4.06l0.08 -3.51 0.34 0 0 -4.27c1.15,-10.83 4.71,-20.94 10.14,-29.79l1.21 0 0 -1.91c2.2,-3.36 4.67,-6.52 7.4,-9.47l0.17 0 0 -0.18c1.16,-1.24 2.37,-2.44 3.61,-3.59l0.18 0 0 -0.17c7.05,-6.52 15.4,-11.65 24.64,-14.97l1.86 0 0 -0.64c4.24,-1.39 8.64,-2.41 13.18,-3 -20.34,9.83 -34.36,30.53 -34.36,54.57 0,33.56 27.13,60.74 60.64,60.74 24.08,0 44.85,-14.1 54.66,-34.42 -0.61,4.68 -1.67,9.24 -3.14,13.6l-0.11 0 0 0.35c-1.78,5.22 -4.14,10.18 -7.02,14.79l-0.56 0 0 0.89c-5.62,8.75 -13.07,16.21 -21.81,21.83l-0.89 0 0 0.55c-4.62,2.88 -9.6,5.24 -14.84,7.02l-0.31 0 0 0.11c-6.56,2.19 -13.55,3.47 -20.8,3.67l-1.92 0 0 0.03 -0.15 0c-4.39,0 -8.63,-0.51 -12.83,-1.33l6.28 97.28c9.81,4.31 16.7,14.08 16.7,25.42 0,7.99 -3.45,15.05 -8.78,20.12l0 0.04c28.73,40.21 65.57,74.46 107.74,100.85l4.61 2.92 0 0.75 1.15 0c3.47,2.27 6.87,4.63 10.21,7.07l0 0.49 0.66 0 3.12 2.35 0 1.44 1.89 0 1.91 1.5 0 2.28 2.85 0c2.9,2.38 5.73,4.81 8.5,7.31l0 0.27 0.3 0 3.49 3.19 0 0.59 0.62 0 3.17 3.05 0 0.73 0.75 0c2.32,2.29 4.59,4.63 6.81,7l0 0.58 0.54 0 3.25 3.56 0 0.22 0.19 0c2.53,2.83 4.99,5.72 7.38,8.67l0 2.69 2.14 0 1.65 2.13 0 1.66 1.28 0 2.5 3.37 0 0.4 0.29 0 3.5 4.95 0 2.63 1.77 0 2.01 3.06 0 0.72 0.47 0c3.91,6.09 7.53,12.33 10.89,18.77l0 0.16 0.08 0c1.27,2.46 2.51,4.93 3.7,7.44l0 3.91 1.83 0 1.97 4.44 0 3.13 1.32 0c0.84,2.06 1.67,4.12 2.47,6.21l0 1.36 0.51 0c1.15,3.07 2.24,6.18 3.26,9.3l0 2.06 0.67 0c2.81,8.86 5.12,17.97 6.91,27.25l0 10.62 1.79 0c0.91,6.22 1.57,12.54 2,18.92l0 11.36 0.48 0 0.04 4.59c0,2.26 -0.02,4.51 -0.08,6.77l-0.44 0 0 9.32c-0.29,4.5 -0.71,8.95 -1.26,13.39l-2.53 0 0 16.11c-0.67,3.49 -1.42,6.96 -2.26,10.39l-1.53 0 0 5.98c-0.87,3.23 -1.8,6.43 -2.8,9.61l82.46 0 0 36.23 -52.35 0 0 378.62 52.35 0 0 28.32 51.54 0 0 84.37 -87.25 0 29.56 1040.87 69.36 0 0 145.94 -65.19 0 32.25 1136.77 91.31 0 0 95.73 165.32 0 26.37 -924.9 -51.74 0 0 -115.37 55.08 0 23.51 -822.91 -69.35 0 0 -66.69 41.13 0 0 -22.4 40.09 0 0 -299.34 -40.09 0 0 -28.64 65.24 0c-5.73,-17.89 -8.64,-36.78 -8.64,-56.56 0,-6.74 0.37,-13.4 1.04,-19.95l1.27 0 0 -9.81c0.89,-5.65 2.04,-11.21 3.41,-16.69l0.37 0 0 -1.46c0.87,-3.34 1.83,-6.64 2.86,-9.9l0.93 0 0 -2.86c0.96,-2.86 2,-5.7 3.09,-8.49l0.69 0 0 -1.75c0.79,-1.95 1.6,-3.89 2.45,-5.82l1.34 0 0 -2.96c3.16,-6.81 6.69,-13.42 10.58,-19.75l0.77 0 0 -1.22c2.16,-3.46 4.42,-6.84 6.8,-10.13l0.78 0 0 -1.08 2.01 -2.71 1.77 0 0 -2.31c2.41,-3.1 4.92,-6.12 7.52,-9.05l0.05 0 0 -0.07 3.37 -3.71 0.42 0 0 -0.45c2.29,-2.44 4.64,-4.8 7.06,-7.12l0.5 0 0 -0.48 3.55 -3.31 0.24 0 0 -0.21c4.33,-3.92 8.85,-7.63 13.52,-11.14l1.62 0 0 -1.2 3.63 -2.59 0.16 0 0 -0.12c2.87,-2.01 5.82,-3.93 8.81,-5.8 33.8,-20.92 62.65,-47.68 85.37,-79.69l0 -0.09c-4.19,-3.98 -6.89,-9.56 -6.89,-15.89 0,-6.16 2.58,-11.76 6.7,-15.76l0.64 0 0 -0.6c1.7,-1.53 3.66,-2.8 5.8,-3.74l5.1 -78.97c-12.28,-4.02 -22.77,-12.07 -29.82,-22.61l0 -0.07 -0.05 0c-1.38,-2.08 -2.63,-4.25 -3.73,-6.51l0 -1.06 -0.51 0c-1.33,-2.88 -2.45,-5.9 -3.28,-9.02l0 -2.34 -0.58 0c-0.89,-3.97 -1.35,-8.1 -1.35,-12.36 0,-4.87 0.61,-9.61 1.77,-14.13l0.16 0 0 -0.6c2.67,-9.97 7.96,-18.86 15.12,-25.89l0.02 0 0 -0.02c8.63,-8.49 19.99,-14.25 32.63,-15.91 -16.08,7.77 -27.21,24.19 -27.21,43.18 0,26.54 21.46,47.98 47.95,47.98 19.05,0 35.48,-11.09 43.2,-27.17 -0.39,2.98 -1.01,5.9 -1.84,8.72l-0.09 0 0 0.29c-7.03,23.49 -28.77,40.67 -54.59,40.67 -3.48,0 -6.85,-0.48 -10.18,-1.06l4.99 76.89c7.72,3.4 13.18,11.17 13.18,20.11 0,6.34 -2.7,11.91 -6.94,15.89l0 0.09c22.75,31.78 51.79,58.77 85.18,79.69 4.73,2.92 9.33,6.04 13.78,9.34l0 0.37 0.49 0 3.3 2.5 0 1.29 1.61 0c10.53,8.39 20.14,17.87 28.66,28.27l0 2.01 1.62 0 2.17 2.77 0 1.02 0.78 0c2.37,3.11 4.61,6.29 6.79,9.56l0 1.79 1.17 0c3.71,5.71 7.1,11.6 10.19,17.69l0 1.24 0.62 0c1.09,2.2 2.15,4.43 3.16,6.69l0 0.88 0.39 0c1.19,2.7 2.33,5.42 3.39,8.18l0 3.18 1.2 0c0.91,2.49 1.77,4.99 2.59,7.53l0 0.03 0.01 0c1.42,4.45 2.69,8.99 3.78,13.59l0 1.56 0.36 0c1.46,6.37 2.61,12.85 3.41,19.43l0 10.85 1.01 0c0.26,4.09 0.4,8.21 0.4,12.37 0,7.36 -0.41,14.59 -1.21,21.69l-0.2 0 0 1.61c-1.39,11.44 -3.83,22.52 -7.26,33.25l65.22 0 0 28.64 -41.44 0 0 299.34 41.44 0 0 22.4 40.73 0 0 66.69 -68.96 0 23.38 822.91 54.78 0 0 115.37 -51.52 0 26.27 924.9 95.28 0 0 160.62 -1559.56 0 -32.41 0 -2575.56 0 -64.91 0 -1627.55 0zm5639.1 -2374.37c-8.97,0 -16.19,7.29 -16.19,16.23l0 245.25 40.31 0 0 -245.25c0,-8.94 -7.27,-16.23 -16.2,-16.23l-7.91 0zm-75.71 0c-8.96,0 -16.2,7.29 -16.2,16.23l0 245.25 40.36 0 0 -245.25c0,-8.94 -7.31,-16.23 -16.24,-16.23l-7.91 0zm-75.67 0c-8.97,0 -16.24,7.29 -16.24,16.23l0 245.25 40.32 0 0 -245.25c0,-8.94 -7.23,-16.23 -16.17,-16.23l-7.9 0zm-75.72 0c-8.97,0 -16.23,7.29 -16.23,16.23l0 245.25 40.31 0 0 -245.25c0,-8.94 -7.23,-16.23 -16.15,-16.23l-7.92 0zm-75.71 0c-8.96,0 -16.19,7.29 -16.19,16.23l0 245.25 40.34 0 0 -245.25c0,-8.94 -7.29,-16.23 -16.23,-16.23l-7.91 0zm-4819.78 0c-8.94,0 -16.18,7.29 -16.18,16.23l0 245.25 40.32 0 0 -245.25c0,-8.94 -7.27,-16.23 -16.19,-16.23l-7.94 0zm-75.68 0c-8.94,0 -16.22,7.29 -16.22,16.23l0 245.25 40.32 0 0 -245.25c0,-8.94 -7.24,-16.23 -16.18,-16.23l-7.91 0zm-75.71 0c-8.94,0 -16.18,7.29 -16.18,16.23l0 245.25 40.29 0 0 -245.25c0,-8.94 -7.26,-16.23 -16.19,-16.23l-7.91 0zm-75.71 0c-8.95,0 -16.19,7.29 -16.19,16.23l0 245.25 40.33 0 0 -245.25c0,-8.94 -7.24,-16.23 -16.23,-16.23l-7.9 0zm-75.7 0c-8.95,0 -16.21,7.29 -16.21,16.23l0 245.25 40.35 0 0 -245.25c0,-8.94 -7.3,-16.23 -16.23,-16.23l-7.9 0zm4591.36 -649.05c-11.31,0 -20.52,9.18 -20.52,20.57l0 310.22 50.99 0 0 -310.22c0,-11.39 -9.16,-20.57 -20.48,-20.57l-10 0zm-95.8 0c-11.29,0 -20.49,9.18 -20.49,20.57l0 310.22 51.03 0 0 -310.22c0,-11.39 -9.16,-20.57 -20.48,-20.57l-10.07 0zm-95.74 0c-11.32,0 -20.48,9.18 -20.48,20.57l0 310.22 51.03 0 0 -310.22c0,-11.39 -9.17,-20.57 -20.52,-20.57l-10.04 0zm-95.73 0c-11.32,0 -20.48,9.18 -20.48,20.57l0 310.22 50.99 0 0 -310.22c0,-11.39 -9.17,-20.57 -20.53,-20.57l-9.99 0zm-95.77 0c-11.27,0 -20.49,9.18 -20.49,20.57l0 310.22 51.04 0 0 -310.22c0,-11.39 -9.2,-20.57 -20.52,-20.57l-10.04 0zm-2894.72 0c-11.34,0 -20.53,9.18 -20.53,20.57l0 310.22 51.01 0 0 -310.22c0,-11.39 -9.17,-20.57 -20.47,-20.57l-10.02 0zm-95.74 0c-11.35,0 -20.54,9.18 -20.54,20.57l0 310.22 51.02 0 0 -310.22c0,-11.39 -9.17,-20.57 -20.51,-20.57l-9.98 0zm-95.79 0c-11.31,0 -20.52,9.18 -20.52,20.57l0 310.22 51.02 0 0 -310.22c0,-11.39 -9.18,-20.57 -20.49,-20.57l-10.02 0zm-95.75 0c-11.31,0 -20.51,9.18 -20.51,20.57l0 310.22 51.02 0 0 -310.22c0,-11.39 -9.17,-20.57 -20.48,-20.57l-10.04 0zm-95.74 0c-11.31,0 -20.51,9.18 -20.51,20.57l0 310.22 51.01 0 0 -310.22c0,-11.39 -9.17,-20.57 -20.48,-20.57l-10.03 0z"/>
 </g>
</svg>
